<?xml version="1.0" encoding="utf-8" standalone="no"?>
<!DOCTYPE svg PUBLIC "-//W3C//DTD SVG 1.1//EN"
  "http://www.w3.org/Graphics/SVG/1.1/DTD/svg11.dtd">
<svg xmlns:xlink="http://www.w3.org/1999/xlink" width="588.442812pt" height="146.235938pt" viewBox="0 0 588.442812 146.235938" xmlns="http://www.w3.org/2000/svg" version="1.1">
 <metadata>
  <rdf:RDF xmlns:dc="http://purl.org/dc/elements/1.1/" xmlns:cc="http://creativecommons.org/ns#" xmlns:rdf="http://www.w3.org/1999/02/22-rdf-syntax-ns#">
   <cc:Work>
    <dc:type rdf:resource="http://purl.org/dc/dcmitype/StillImage"/>
    <dc:date>2024-03-07T17:24:43.384715</dc:date>
    <dc:format>image/svg+xml</dc:format>
    <dc:creator>
     <cc:Agent>
      <dc:title>Matplotlib v3.7.2, https://matplotlib.org/</dc:title>
     </cc:Agent>
    </dc:creator>
   </cc:Work>
  </rdf:RDF>
 </metadata>
 <defs>
  <style type="text/css">*{stroke-linejoin: round; stroke-linecap: butt}</style>
 </defs>
 <g id="figure_1">
  <g id="patch_1">
   <path d="M 0 146.235938 
L 588.442812 146.235938 
L 588.442812 0 
L 0 0 
z
" style="fill: #ffffff"/>
  </g>
  <g id="axes_1">
   <g id="patch_2">
    <path d="M 41.245313 96.833 
L 115.701246 96.833 
L 115.701246 13 
L 41.245313 13 
z
" style="fill: #ffffff"/>
   </g>
   <g id="PolyCollection_1">
    <defs>
     <path id="m0860485808" d="M 44.629673 -122.457316 
L 44.629673 -115.74322 
L 60.291019 -116.137918 
L 75.952366 -114.950893 
L 96.655539 -106.699674 
L 112.316886 -104.662037 
L 112.316886 -109.800237 
L 112.316886 -109.800237 
L 96.655539 -113.052928 
L 75.952366 -118.181224 
L 60.291019 -118.394718 
L 44.629673 -122.457316 
z
" style="stroke: #000000; stroke-opacity: 0.2"/>
    </defs>
    <g clip-path="url(#p33b1bacc18)">
     <use xlink:href="#m0860485808" x="0" y="146.235938" style="fill-opacity: 0.2; stroke: #000000; stroke-opacity: 0.2"/>
    </g>
   </g>
   <g id="PolyCollection_2">
    <defs>
     <path id="me35d8f8afb" d="M 44.629673 -127.989041 
L 44.629673 -119.337911 
L 60.291019 -119.663445 
L 75.952366 -117.089649 
L 96.655539 -110.786411 
L 112.316886 -109.575288 
L 112.316886 -115.158049 
L 112.316886 -115.158049 
L 96.655539 -118.425594 
L 75.952366 -122.714248 
L 60.291019 -121.800098 
L 44.629673 -127.989041 
z
" style="stroke: #000000; stroke-opacity: 0.2"/>
    </defs>
    <g clip-path="url(#p33b1bacc18)">
     <use xlink:href="#me35d8f8afb" x="0" y="146.235938" style="fill-opacity: 0.2; stroke: #000000; stroke-opacity: 0.2"/>
    </g>
   </g>
   <g id="PolyCollection_3">
    <defs>
     <path id="mdab91b2006" d="M 44.629673 -120.439782 
L 44.629673 -113.062356 
L 60.291019 -115.070129 
L 75.952366 -111.766276 
L 96.655539 -110.136822 
L 112.316886 -108.175563 
L 112.316886 -113.376792 
L 112.316886 -113.376792 
L 96.655539 -115.469588 
L 75.952366 -116.782378 
L 60.291019 -117.789604 
L 44.629673 -120.439782 
z
" style="stroke: #0000ff; stroke-opacity: 0.2"/>
    </defs>
    <g clip-path="url(#p33b1bacc18)">
     <use xlink:href="#mdab91b2006" x="0" y="146.235938" style="fill: #0000ff; fill-opacity: 0.2; stroke: #0000ff; stroke-opacity: 0.2"/>
    </g>
   </g>
   <g id="PolyCollection_4">
    <defs>
     <path id="md11abcdd78" d="M 44.629673 -122.921836 
L 44.629673 -115.661701 
L 60.291019 -116.410307 
L 75.952366 -112.553343 
L 96.655539 -112.499382 
L 112.316886 -110.273171 
L 112.316886 -114.336872 
L 112.316886 -114.336872 
L 96.655539 -118.437592 
L 75.952366 -117.563309 
L 60.291019 -118.797024 
L 44.629673 -122.921836 
z
" style="stroke: #0000ff; stroke-opacity: 0.2"/>
    </defs>
    <g clip-path="url(#p33b1bacc18)">
     <use xlink:href="#md11abcdd78" x="0" y="146.235938" style="fill: #0000ff; fill-opacity: 0.2; stroke: #0000ff; stroke-opacity: 0.2"/>
    </g>
   </g>
   <g id="PolyCollection_5">
    <defs>
     <path id="med19d73789" d="M 44.629673 -105.57437 
L 44.629673 -93.874451 
L 60.291019 -89.329385 
L 75.952366 -93.763671 
L 96.655539 -86.722159 
L 112.316886 -84.53893 
L 112.316886 -90.784194 
L 112.316886 -90.784194 
L 96.655539 -95.372172 
L 75.952366 -100.482873 
L 60.291019 -94.990953 
L 44.629673 -105.57437 
z
" style="stroke: #ff0000; stroke-opacity: 0.2"/>
    </defs>
    <g clip-path="url(#p33b1bacc18)">
     <use xlink:href="#med19d73789" x="0" y="146.235938" style="fill: #ff0000; fill-opacity: 0.2; stroke: #ff0000; stroke-opacity: 0.2"/>
    </g>
   </g>
   <g id="PolyCollection_6">
    <defs>
     <path id="meccebe462f" d="M 44.629673 -121.992924 
L 44.629673 -115.492371 
L 60.291019 -113.1113 
L 75.952366 -111.02114 
L 96.655539 -106.901294 
L 112.316886 -103.8484 
L 112.316886 -109.736953 
L 112.316886 -109.736953 
L 96.655539 -113.165697 
L 75.952366 -115.353796 
L 60.291019 -116.094108 
L 44.629673 -121.992924 
z
" style="stroke: #ff0000; stroke-opacity: 0.2"/>
    </defs>
    <g clip-path="url(#p33b1bacc18)">
     <use xlink:href="#meccebe462f" x="0" y="146.235938" style="fill: #ff0000; fill-opacity: 0.2; stroke: #ff0000; stroke-opacity: 0.2"/>
    </g>
   </g>
   <g id="matplotlib.axis_1">
    <g id="xtick_1">
     <g id="line2d_1">
      <defs>
       <path id="m0bf175c2cd" d="M 0 0 
L 0 3.5 
" style="stroke: #000000; stroke-width: 0.8"/>
      </defs>
      <g>
       <use xlink:href="#m0bf175c2cd" x="60.291019" y="96.833" style="stroke: #000000; stroke-width: 0.8"/>
      </g>
     </g>
     <g id="text_1">
      <!-- $\mathdefault{10^{3}}$ -->
      <g transform="translate(52.441019 114.1455) scale(0.1 -0.1)">
       <defs>
        <path id="ArialMT-31" d="M 2384 0 
L 1822 0 
L 1822 3584 
Q 1619 3391 1289 3197 
Q 959 3003 697 2906 
L 697 3450 
Q 1169 3672 1522 3987 
Q 1875 4303 2022 4600 
L 2384 4600 
L 2384 0 
z
" transform="scale(0.015625)"/>
        <path id="ArialMT-30" d="M 266 2259 
Q 266 3072 433 3567 
Q 600 4063 929 4331 
Q 1259 4600 1759 4600 
Q 2128 4600 2406 4451 
Q 2684 4303 2865 4023 
Q 3047 3744 3150 3342 
Q 3253 2941 3253 2259 
Q 3253 1453 3087 958 
Q 2922 463 2592 192 
Q 2263 -78 1759 -78 
Q 1097 -78 719 397 
Q 266 969 266 2259 
z
M 844 2259 
Q 844 1131 1108 757 
Q 1372 384 1759 384 
Q 2147 384 2411 759 
Q 2675 1134 2675 2259 
Q 2675 3391 2411 3762 
Q 2147 4134 1753 4134 
Q 1366 4134 1134 3806 
Q 844 3388 844 2259 
z
" transform="scale(0.015625)"/>
        <path id="ArialMT-33" d="M 269 1209 
L 831 1284 
Q 928 806 1161 595 
Q 1394 384 1728 384 
Q 2125 384 2398 659 
Q 2672 934 2672 1341 
Q 2672 1728 2419 1979 
Q 2166 2231 1775 2231 
Q 1616 2231 1378 2169 
L 1441 2663 
Q 1497 2656 1531 2656 
Q 1891 2656 2178 2843 
Q 2466 3031 2466 3422 
Q 2466 3731 2256 3934 
Q 2047 4138 1716 4138 
Q 1388 4138 1169 3931 
Q 950 3725 888 3313 
L 325 3413 
Q 428 3978 793 4289 
Q 1159 4600 1703 4600 
Q 2078 4600 2393 4439 
Q 2709 4278 2876 4000 
Q 3044 3722 3044 3409 
Q 3044 3113 2884 2869 
Q 2725 2625 2413 2481 
Q 2819 2388 3044 2092 
Q 3269 1797 3269 1353 
Q 3269 753 2831 336 
Q 2394 -81 1725 -81 
Q 1122 -81 723 278 
Q 325 638 269 1209 
z
" transform="scale(0.015625)"/>
       </defs>
       <use xlink:href="#ArialMT-31" transform="translate(0 0.99375)"/>
       <use xlink:href="#ArialMT-30" transform="translate(55.615234 0.99375)"/>
       <use xlink:href="#ArialMT-33" transform="translate(112.972813 70.6875) scale(0.7)"/>
      </g>
     </g>
    </g>
    <g id="xtick_2">
     <g id="line2d_2">
      <g>
       <use xlink:href="#m0bf175c2cd" x="112.316886" y="96.833" style="stroke: #000000; stroke-width: 0.8"/>
      </g>
     </g>
     <g id="text_2">
      <!-- $\mathdefault{10^{4}}$ -->
      <g transform="translate(104.466886 114.0455) scale(0.1 -0.1)">
       <defs>
        <path id="ArialMT-34" d="M 2069 0 
L 2069 1097 
L 81 1097 
L 81 1613 
L 2172 4581 
L 2631 4581 
L 2631 1613 
L 3250 1613 
L 3250 1097 
L 2631 1097 
L 2631 0 
L 2069 0 
z
M 2069 1613 
L 2069 3678 
L 634 1613 
L 2069 1613 
z
" transform="scale(0.015625)"/>
       </defs>
       <use xlink:href="#ArialMT-31" transform="translate(0 0.201563)"/>
       <use xlink:href="#ArialMT-30" transform="translate(55.615234 0.201563)"/>
       <use xlink:href="#ArialMT-34" transform="translate(112.972813 69.895313) scale(0.7)"/>
      </g>
     </g>
    </g>
    <g id="xtick_3">
     <g id="line2d_3">
      <defs>
       <path id="mf80375a8cd" d="M 0 0 
L 0 2 
" style="stroke: #000000; stroke-width: 0.6"/>
      </defs>
      <g>
       <use xlink:href="#mf80375a8cd" x="44.629673" y="96.833" style="stroke: #000000; stroke-width: 0.6"/>
      </g>
     </g>
    </g>
    <g id="xtick_4">
     <g id="line2d_4">
      <g>
       <use xlink:href="#mf80375a8cd" x="48.749146" y="96.833" style="stroke: #000000; stroke-width: 0.6"/>
      </g>
     </g>
    </g>
    <g id="xtick_5">
     <g id="line2d_5">
      <g>
       <use xlink:href="#mf80375a8cd" x="52.232111" y="96.833" style="stroke: #000000; stroke-width: 0.6"/>
      </g>
     </g>
    </g>
    <g id="xtick_6">
     <g id="line2d_6">
      <g>
       <use xlink:href="#mf80375a8cd" x="55.249192" y="96.833" style="stroke: #000000; stroke-width: 0.6"/>
      </g>
     </g>
    </g>
    <g id="xtick_7">
     <g id="line2d_7">
      <g>
       <use xlink:href="#mf80375a8cd" x="57.910446" y="96.833" style="stroke: #000000; stroke-width: 0.6"/>
      </g>
     </g>
    </g>
    <g id="xtick_8">
     <g id="line2d_8">
      <g>
       <use xlink:href="#mf80375a8cd" x="75.952366" y="96.833" style="stroke: #000000; stroke-width: 0.6"/>
      </g>
     </g>
    </g>
    <g id="xtick_9">
     <g id="line2d_9">
      <g>
       <use xlink:href="#mf80375a8cd" x="85.113666" y="96.833" style="stroke: #000000; stroke-width: 0.6"/>
      </g>
     </g>
    </g>
    <g id="xtick_10">
     <g id="line2d_10">
      <g>
       <use xlink:href="#mf80375a8cd" x="91.613712" y="96.833" style="stroke: #000000; stroke-width: 0.6"/>
      </g>
     </g>
    </g>
    <g id="xtick_11">
     <g id="line2d_11">
      <g>
       <use xlink:href="#mf80375a8cd" x="96.655539" y="96.833" style="stroke: #000000; stroke-width: 0.6"/>
      </g>
     </g>
    </g>
    <g id="xtick_12">
     <g id="line2d_12">
      <g>
       <use xlink:href="#mf80375a8cd" x="100.775012" y="96.833" style="stroke: #000000; stroke-width: 0.6"/>
      </g>
     </g>
    </g>
    <g id="xtick_13">
     <g id="line2d_13">
      <g>
       <use xlink:href="#mf80375a8cd" x="104.257977" y="96.833" style="stroke: #000000; stroke-width: 0.6"/>
      </g>
     </g>
    </g>
    <g id="xtick_14">
     <g id="line2d_14">
      <g>
       <use xlink:href="#mf80375a8cd" x="107.275058" y="96.833" style="stroke: #000000; stroke-width: 0.6"/>
      </g>
     </g>
    </g>
    <g id="xtick_15">
     <g id="line2d_15">
      <g>
       <use xlink:href="#mf80375a8cd" x="109.936313" y="96.833" style="stroke: #000000; stroke-width: 0.6"/>
      </g>
     </g>
    </g>
    <g id="text_3">
     <!-- Number of cells -->
     <g transform="translate(43.741248 127.290812) scale(0.1 -0.1)">
      <defs>
       <path id="ArialMT-4e" d="M 488 0 
L 488 4581 
L 1109 4581 
L 3516 984 
L 3516 4581 
L 4097 4581 
L 4097 0 
L 3475 0 
L 1069 3600 
L 1069 0 
L 488 0 
z
" transform="scale(0.015625)"/>
       <path id="ArialMT-75" d="M 2597 0 
L 2597 488 
Q 2209 -75 1544 -75 
Q 1250 -75 995 37 
Q 741 150 617 320 
Q 494 491 444 738 
Q 409 903 409 1263 
L 409 3319 
L 972 3319 
L 972 1478 
Q 972 1038 1006 884 
Q 1059 663 1231 536 
Q 1403 409 1656 409 
Q 1909 409 2131 539 
Q 2353 669 2445 892 
Q 2538 1116 2538 1541 
L 2538 3319 
L 3100 3319 
L 3100 0 
L 2597 0 
z
" transform="scale(0.015625)"/>
       <path id="ArialMT-6d" d="M 422 0 
L 422 3319 
L 925 3319 
L 925 2853 
Q 1081 3097 1340 3245 
Q 1600 3394 1931 3394 
Q 2300 3394 2536 3241 
Q 2772 3088 2869 2813 
Q 3263 3394 3894 3394 
Q 4388 3394 4653 3120 
Q 4919 2847 4919 2278 
L 4919 0 
L 4359 0 
L 4359 2091 
Q 4359 2428 4304 2576 
Q 4250 2725 4106 2815 
Q 3963 2906 3769 2906 
Q 3419 2906 3187 2673 
Q 2956 2441 2956 1928 
L 2956 0 
L 2394 0 
L 2394 2156 
Q 2394 2531 2256 2718 
Q 2119 2906 1806 2906 
Q 1569 2906 1367 2781 
Q 1166 2656 1075 2415 
Q 984 2175 984 1722 
L 984 0 
L 422 0 
z
" transform="scale(0.015625)"/>
       <path id="ArialMT-62" d="M 941 0 
L 419 0 
L 419 4581 
L 981 4581 
L 981 2947 
Q 1338 3394 1891 3394 
Q 2197 3394 2470 3270 
Q 2744 3147 2920 2923 
Q 3097 2700 3197 2384 
Q 3297 2069 3297 1709 
Q 3297 856 2875 390 
Q 2453 -75 1863 -75 
Q 1275 -75 941 416 
L 941 0 
z
M 934 1684 
Q 934 1088 1097 822 
Q 1363 388 1816 388 
Q 2184 388 2453 708 
Q 2722 1028 2722 1663 
Q 2722 2313 2464 2622 
Q 2206 2931 1841 2931 
Q 1472 2931 1203 2611 
Q 934 2291 934 1684 
z
" transform="scale(0.015625)"/>
       <path id="ArialMT-65" d="M 2694 1069 
L 3275 997 
Q 3138 488 2766 206 
Q 2394 -75 1816 -75 
Q 1088 -75 661 373 
Q 234 822 234 1631 
Q 234 2469 665 2931 
Q 1097 3394 1784 3394 
Q 2450 3394 2872 2941 
Q 3294 2488 3294 1666 
Q 3294 1616 3291 1516 
L 816 1516 
Q 847 969 1125 678 
Q 1403 388 1819 388 
Q 2128 388 2347 550 
Q 2566 713 2694 1069 
z
M 847 1978 
L 2700 1978 
Q 2663 2397 2488 2606 
Q 2219 2931 1791 2931 
Q 1403 2931 1139 2672 
Q 875 2413 847 1978 
z
" transform="scale(0.015625)"/>
       <path id="ArialMT-72" d="M 416 0 
L 416 3319 
L 922 3319 
L 922 2816 
Q 1116 3169 1280 3281 
Q 1444 3394 1641 3394 
Q 1925 3394 2219 3213 
L 2025 2691 
Q 1819 2813 1613 2813 
Q 1428 2813 1281 2702 
Q 1134 2591 1072 2394 
Q 978 2094 978 1738 
L 978 0 
L 416 0 
z
" transform="scale(0.015625)"/>
       <path id="ArialMT-20" transform="scale(0.015625)"/>
       <path id="ArialMT-6f" d="M 213 1659 
Q 213 2581 725 3025 
Q 1153 3394 1769 3394 
Q 2453 3394 2887 2945 
Q 3322 2497 3322 1706 
Q 3322 1066 3130 698 
Q 2938 331 2570 128 
Q 2203 -75 1769 -75 
Q 1072 -75 642 372 
Q 213 819 213 1659 
z
M 791 1659 
Q 791 1022 1069 705 
Q 1347 388 1769 388 
Q 2188 388 2466 706 
Q 2744 1025 2744 1678 
Q 2744 2294 2464 2611 
Q 2184 2928 1769 2928 
Q 1347 2928 1069 2612 
Q 791 2297 791 1659 
z
" transform="scale(0.015625)"/>
       <path id="ArialMT-66" d="M 556 0 
L 556 2881 
L 59 2881 
L 59 3319 
L 556 3319 
L 556 3672 
Q 556 4006 616 4169 
Q 697 4388 901 4523 
Q 1106 4659 1475 4659 
Q 1713 4659 2000 4603 
L 1916 4113 
Q 1741 4144 1584 4144 
Q 1328 4144 1222 4034 
Q 1116 3925 1116 3625 
L 1116 3319 
L 1763 3319 
L 1763 2881 
L 1116 2881 
L 1116 0 
L 556 0 
z
" transform="scale(0.015625)"/>
       <path id="ArialMT-63" d="M 2588 1216 
L 3141 1144 
Q 3050 572 2676 248 
Q 2303 -75 1759 -75 
Q 1078 -75 664 370 
Q 250 816 250 1647 
Q 250 2184 428 2587 
Q 606 2991 970 3192 
Q 1334 3394 1763 3394 
Q 2303 3394 2647 3120 
Q 2991 2847 3088 2344 
L 2541 2259 
Q 2463 2594 2264 2762 
Q 2066 2931 1784 2931 
Q 1359 2931 1093 2626 
Q 828 2322 828 1663 
Q 828 994 1084 691 
Q 1341 388 1753 388 
Q 2084 388 2306 591 
Q 2528 794 2588 1216 
z
" transform="scale(0.015625)"/>
       <path id="ArialMT-6c" d="M 409 0 
L 409 4581 
L 972 4581 
L 972 0 
L 409 0 
z
" transform="scale(0.015625)"/>
       <path id="ArialMT-73" d="M 197 991 
L 753 1078 
Q 800 744 1014 566 
Q 1228 388 1613 388 
Q 2000 388 2187 545 
Q 2375 703 2375 916 
Q 2375 1106 2209 1216 
Q 2094 1291 1634 1406 
Q 1016 1563 777 1677 
Q 538 1791 414 1992 
Q 291 2194 291 2438 
Q 291 2659 392 2848 
Q 494 3038 669 3163 
Q 800 3259 1026 3326 
Q 1253 3394 1513 3394 
Q 1903 3394 2198 3281 
Q 2494 3169 2634 2976 
Q 2775 2784 2828 2463 
L 2278 2388 
Q 2241 2644 2061 2787 
Q 1881 2931 1553 2931 
Q 1166 2931 1000 2803 
Q 834 2675 834 2503 
Q 834 2394 903 2306 
Q 972 2216 1119 2156 
Q 1203 2125 1616 2013 
Q 2213 1853 2448 1751 
Q 2684 1650 2818 1456 
Q 2953 1263 2953 975 
Q 2953 694 2789 445 
Q 2625 197 2315 61 
Q 2006 -75 1616 -75 
Q 969 -75 630 194 
Q 291 463 197 991 
z
" transform="scale(0.015625)"/>
      </defs>
      <use xlink:href="#ArialMT-4e"/>
      <use xlink:href="#ArialMT-75" x="72.216797"/>
      <use xlink:href="#ArialMT-6d" x="127.832031"/>
      <use xlink:href="#ArialMT-62" x="211.132812"/>
      <use xlink:href="#ArialMT-65" x="266.748047"/>
      <use xlink:href="#ArialMT-72" x="322.363281"/>
      <use xlink:href="#ArialMT-20" x="355.664062"/>
      <use xlink:href="#ArialMT-6f" x="383.447266"/>
      <use xlink:href="#ArialMT-66" x="439.0625"/>
      <use xlink:href="#ArialMT-20" x="466.845703"/>
      <use xlink:href="#ArialMT-63" x="494.628906"/>
      <use xlink:href="#ArialMT-65" x="544.628906"/>
      <use xlink:href="#ArialMT-6c" x="600.244141"/>
      <use xlink:href="#ArialMT-6c" x="622.460938"/>
      <use xlink:href="#ArialMT-73" x="644.677734"/>
     </g>
    </g>
   </g>
   <g id="matplotlib.axis_2">
    <g id="ytick_1">
     <g id="line2d_16">
      <defs>
       <path id="m1c9fa0b1df" d="M 0 0 
L -3.5 0 
" style="stroke: #000000; stroke-width: 0.8"/>
      </defs>
      <g>
       <use xlink:href="#m1c9fa0b1df" x="41.245313" y="90.400233" style="stroke: #000000; stroke-width: 0.8"/>
      </g>
     </g>
     <g id="text_4">
      <!-- 0.6 -->
      <g transform="translate(20.345313 93.979139) scale(0.1 -0.1)">
       <defs>
        <path id="ArialMT-2e" d="M 581 0 
L 581 641 
L 1222 641 
L 1222 0 
L 581 0 
z
" transform="scale(0.015625)"/>
        <path id="ArialMT-36" d="M 3184 3459 
L 2625 3416 
Q 2550 3747 2413 3897 
Q 2184 4138 1850 4138 
Q 1581 4138 1378 3988 
Q 1113 3794 959 3422 
Q 806 3050 800 2363 
Q 1003 2672 1297 2822 
Q 1591 2972 1913 2972 
Q 2475 2972 2870 2558 
Q 3266 2144 3266 1488 
Q 3266 1056 3080 686 
Q 2894 316 2569 119 
Q 2244 -78 1831 -78 
Q 1128 -78 684 439 
Q 241 956 241 2144 
Q 241 3472 731 4075 
Q 1159 4600 1884 4600 
Q 2425 4600 2770 4297 
Q 3116 3994 3184 3459 
z
M 888 1484 
Q 888 1194 1011 928 
Q 1134 663 1356 523 
Q 1578 384 1822 384 
Q 2178 384 2434 671 
Q 2691 959 2691 1453 
Q 2691 1928 2437 2201 
Q 2184 2475 1800 2475 
Q 1419 2475 1153 2201 
Q 888 1928 888 1484 
z
" transform="scale(0.015625)"/>
       </defs>
       <use xlink:href="#ArialMT-30"/>
       <use xlink:href="#ArialMT-2e" x="55.615234"/>
       <use xlink:href="#ArialMT-36" x="83.398438"/>
      </g>
     </g>
    </g>
    <g id="ytick_2">
     <g id="line2d_17">
      <g>
       <use xlink:href="#m1c9fa0b1df" x="41.245313" y="48.993918" style="stroke: #000000; stroke-width: 0.8"/>
      </g>
     </g>
     <g id="text_5">
      <!-- 0.8 -->
      <g transform="translate(20.345313 52.572824) scale(0.1 -0.1)">
       <defs>
        <path id="ArialMT-38" d="M 1131 2484 
Q 781 2613 612 2850 
Q 444 3088 444 3419 
Q 444 3919 803 4259 
Q 1163 4600 1759 4600 
Q 2359 4600 2725 4251 
Q 3091 3903 3091 3403 
Q 3091 3084 2923 2848 
Q 2756 2613 2416 2484 
Q 2838 2347 3058 2040 
Q 3278 1734 3278 1309 
Q 3278 722 2862 322 
Q 2447 -78 1769 -78 
Q 1091 -78 675 323 
Q 259 725 259 1325 
Q 259 1772 486 2073 
Q 713 2375 1131 2484 
z
M 1019 3438 
Q 1019 3113 1228 2906 
Q 1438 2700 1772 2700 
Q 2097 2700 2305 2904 
Q 2513 3109 2513 3406 
Q 2513 3716 2298 3927 
Q 2084 4138 1766 4138 
Q 1444 4138 1231 3931 
Q 1019 3725 1019 3438 
z
M 838 1322 
Q 838 1081 952 856 
Q 1066 631 1291 507 
Q 1516 384 1775 384 
Q 2178 384 2440 643 
Q 2703 903 2703 1303 
Q 2703 1709 2433 1975 
Q 2163 2241 1756 2241 
Q 1359 2241 1098 1978 
Q 838 1716 838 1322 
z
" transform="scale(0.015625)"/>
       </defs>
       <use xlink:href="#ArialMT-30"/>
       <use xlink:href="#ArialMT-2e" x="55.615234"/>
       <use xlink:href="#ArialMT-38" x="83.398438"/>
      </g>
     </g>
    </g>
    <g id="text_6">
     <!-- Mean triplets correct -->
     <g transform="translate(14.357813 100.206344) rotate(-90) scale(0.1 -0.1)">
      <defs>
       <path id="ArialMT-4d" d="M 475 0 
L 475 4581 
L 1388 4581 
L 2472 1338 
Q 2622 884 2691 659 
Q 2769 909 2934 1394 
L 4031 4581 
L 4847 4581 
L 4847 0 
L 4263 0 
L 4263 3834 
L 2931 0 
L 2384 0 
L 1059 3900 
L 1059 0 
L 475 0 
z
" transform="scale(0.015625)"/>
       <path id="ArialMT-61" d="M 2588 409 
Q 2275 144 1986 34 
Q 1697 -75 1366 -75 
Q 819 -75 525 192 
Q 231 459 231 875 
Q 231 1119 342 1320 
Q 453 1522 633 1644 
Q 813 1766 1038 1828 
Q 1203 1872 1538 1913 
Q 2219 1994 2541 2106 
Q 2544 2222 2544 2253 
Q 2544 2597 2384 2738 
Q 2169 2928 1744 2928 
Q 1347 2928 1158 2789 
Q 969 2650 878 2297 
L 328 2372 
Q 403 2725 575 2942 
Q 747 3159 1072 3276 
Q 1397 3394 1825 3394 
Q 2250 3394 2515 3294 
Q 2781 3194 2906 3042 
Q 3031 2891 3081 2659 
Q 3109 2516 3109 2141 
L 3109 1391 
Q 3109 606 3145 398 
Q 3181 191 3288 0 
L 2700 0 
Q 2613 175 2588 409 
z
M 2541 1666 
Q 2234 1541 1622 1453 
Q 1275 1403 1131 1340 
Q 988 1278 909 1158 
Q 831 1038 831 891 
Q 831 666 1001 516 
Q 1172 366 1500 366 
Q 1825 366 2078 508 
Q 2331 650 2450 897 
Q 2541 1088 2541 1459 
L 2541 1666 
z
" transform="scale(0.015625)"/>
       <path id="ArialMT-6e" d="M 422 0 
L 422 3319 
L 928 3319 
L 928 2847 
Q 1294 3394 1984 3394 
Q 2284 3394 2536 3286 
Q 2788 3178 2913 3003 
Q 3038 2828 3088 2588 
Q 3119 2431 3119 2041 
L 3119 0 
L 2556 0 
L 2556 2019 
Q 2556 2363 2490 2533 
Q 2425 2703 2258 2804 
Q 2091 2906 1866 2906 
Q 1506 2906 1245 2678 
Q 984 2450 984 1813 
L 984 0 
L 422 0 
z
" transform="scale(0.015625)"/>
       <path id="ArialMT-74" d="M 1650 503 
L 1731 6 
Q 1494 -44 1306 -44 
Q 1000 -44 831 53 
Q 663 150 594 308 
Q 525 466 525 972 
L 525 2881 
L 113 2881 
L 113 3319 
L 525 3319 
L 525 4141 
L 1084 4478 
L 1084 3319 
L 1650 3319 
L 1650 2881 
L 1084 2881 
L 1084 941 
Q 1084 700 1114 631 
Q 1144 563 1211 522 
Q 1278 481 1403 481 
Q 1497 481 1650 503 
z
" transform="scale(0.015625)"/>
       <path id="ArialMT-69" d="M 425 3934 
L 425 4581 
L 988 4581 
L 988 3934 
L 425 3934 
z
M 425 0 
L 425 3319 
L 988 3319 
L 988 0 
L 425 0 
z
" transform="scale(0.015625)"/>
       <path id="ArialMT-70" d="M 422 -1272 
L 422 3319 
L 934 3319 
L 934 2888 
Q 1116 3141 1344 3267 
Q 1572 3394 1897 3394 
Q 2322 3394 2647 3175 
Q 2972 2956 3137 2557 
Q 3303 2159 3303 1684 
Q 3303 1175 3120 767 
Q 2938 359 2589 142 
Q 2241 -75 1856 -75 
Q 1575 -75 1351 44 
Q 1128 163 984 344 
L 984 -1272 
L 422 -1272 
z
M 931 1641 
Q 931 1000 1190 694 
Q 1450 388 1819 388 
Q 2194 388 2461 705 
Q 2728 1022 2728 1688 
Q 2728 2322 2467 2637 
Q 2206 2953 1844 2953 
Q 1484 2953 1207 2617 
Q 931 2281 931 1641 
z
" transform="scale(0.015625)"/>
      </defs>
      <use xlink:href="#ArialMT-4d"/>
      <use xlink:href="#ArialMT-65" x="83.300781"/>
      <use xlink:href="#ArialMT-61" x="138.916016"/>
      <use xlink:href="#ArialMT-6e" x="194.53125"/>
      <use xlink:href="#ArialMT-20" x="250.146484"/>
      <use xlink:href="#ArialMT-74" x="277.929688"/>
      <use xlink:href="#ArialMT-72" x="305.712891"/>
      <use xlink:href="#ArialMT-69" x="339.013672"/>
      <use xlink:href="#ArialMT-70" x="361.230469"/>
      <use xlink:href="#ArialMT-6c" x="416.845703"/>
      <use xlink:href="#ArialMT-65" x="439.0625"/>
      <use xlink:href="#ArialMT-74" x="494.677734"/>
      <use xlink:href="#ArialMT-73" x="522.460938"/>
      <use xlink:href="#ArialMT-20" x="572.460938"/>
      <use xlink:href="#ArialMT-63" x="600.244141"/>
      <use xlink:href="#ArialMT-6f" x="650.244141"/>
      <use xlink:href="#ArialMT-72" x="705.859375"/>
      <use xlink:href="#ArialMT-72" x="739.160156"/>
      <use xlink:href="#ArialMT-65" x="772.460938"/>
      <use xlink:href="#ArialMT-63" x="828.076172"/>
      <use xlink:href="#ArialMT-74" x="878.076172"/>
     </g>
    </g>
   </g>
   <g id="line2d_18">
    <path d="M 44.629673 27.212157 
L 60.291019 29.011249 
L 75.952366 29.684572 
L 96.655539 36.451013 
L 112.316886 39.306986 
" clip-path="url(#p33b1bacc18)" style="fill: none; stroke: #000000; stroke-width: 2; stroke-linecap: square"/>
    <defs>
     <path id="mb9174f76ed" d="M 0 3 
C 0.795609 3 1.55874 2.683901 2.12132 2.12132 
C 2.683901 1.55874 3 0.795609 3 0 
C 3 -0.795609 2.683901 -1.55874 2.12132 -2.12132 
C 1.55874 -2.683901 0.795609 -3 0 -3 
C -0.795609 -3 -1.55874 -2.683901 -2.12132 -2.12132 
C -2.683901 -1.55874 -3 -0.795609 -3 0 
C -3 0.795609 -2.683901 1.55874 -2.12132 2.12132 
C -1.55874 2.683901 -0.795609 3 0 3 
z
" style="stroke: #ffffff; stroke-width: 0.75"/>
    </defs>
    <g clip-path="url(#p33b1bacc18)">
     <use xlink:href="#mb9174f76ed" x="44.629673" y="27.212157" style="stroke: #ffffff; stroke-width: 0.75"/>
     <use xlink:href="#mb9174f76ed" x="60.291019" y="29.011249" style="stroke: #ffffff; stroke-width: 0.75"/>
     <use xlink:href="#mb9174f76ed" x="75.952366" y="29.684572" style="stroke: #ffffff; stroke-width: 0.75"/>
     <use xlink:href="#mb9174f76ed" x="96.655539" y="36.451013" style="stroke: #ffffff; stroke-width: 0.75"/>
     <use xlink:href="#mb9174f76ed" x="112.316886" y="39.306986" style="stroke: #ffffff; stroke-width: 0.75"/>
    </g>
   </g>
   <g id="line2d_19">
    <path d="M 44.629673 22.425157 
L 60.291019 25.547037 
L 75.952366 26.247129 
L 96.655539 31.685006 
L 112.316886 34.12337 
" clip-path="url(#p33b1bacc18)" style="fill: none; stroke-dasharray: 8,3; stroke-dashoffset: 0; stroke: #000000; stroke-width: 2"/>
    <defs>
     <path id="m5d11e2bc01" d="M -1.5 3 
L 0 1.5 
L 1.5 3 
L 3 1.5 
L 1.5 0 
L 3 -1.5 
L 1.5 -3 
L 0 -1.5 
L -1.5 -3 
L -3 -1.5 
L -1.5 0 
L -3 1.5 
z
" style="stroke: #ffffff; stroke-width: 0.75; stroke-linejoin: miter"/>
    </defs>
    <g clip-path="url(#p33b1bacc18)">
     <use xlink:href="#m5d11e2bc01" x="44.629673" y="22.425157" style="stroke: #ffffff; stroke-width: 0.75; stroke-linejoin: miter"/>
     <use xlink:href="#m5d11e2bc01" x="60.291019" y="25.547037" style="stroke: #ffffff; stroke-width: 0.75; stroke-linejoin: miter"/>
     <use xlink:href="#m5d11e2bc01" x="75.952366" y="26.247129" style="stroke: #ffffff; stroke-width: 0.75; stroke-linejoin: miter"/>
     <use xlink:href="#m5d11e2bc01" x="96.655539" y="31.685006" style="stroke: #ffffff; stroke-width: 0.75; stroke-linejoin: miter"/>
     <use xlink:href="#m5d11e2bc01" x="112.316886" y="34.12337" style="stroke: #ffffff; stroke-width: 0.75; stroke-linejoin: miter"/>
    </g>
   </g>
   <g id="line2d_20">
    <path d="M 44.629673 29.493695 
L 60.291019 29.7631 
L 75.952366 32.001802 
L 96.655539 33.339581 
L 112.316886 35.525934 
" clip-path="url(#p33b1bacc18)" style="fill: none; stroke: #0000ff; stroke-width: 2; stroke-linecap: square"/>
    <defs>
     <path id="m2681d8b8db" d="M 0 3 
C 0.795609 3 1.55874 2.683901 2.12132 2.12132 
C 2.683901 1.55874 3 0.795609 3 0 
C 3 -0.795609 2.683901 -1.55874 2.12132 -2.12132 
C 1.55874 -2.683901 0.795609 -3 0 -3 
C -0.795609 -3 -1.55874 -2.683901 -2.12132 -2.12132 
C -2.683901 -1.55874 -3 -0.795609 -3 0 
C -3 0.795609 -2.683901 1.55874 -2.12132 2.12132 
C -1.55874 2.683901 -0.795609 3 0 3 
z
" style="stroke: #ffffff; stroke-width: 0.75"/>
    </defs>
    <g clip-path="url(#p33b1bacc18)">
     <use xlink:href="#m2681d8b8db" x="44.629673" y="29.493695" style="fill: #0000ff; stroke: #ffffff; stroke-width: 0.75"/>
     <use xlink:href="#m2681d8b8db" x="60.291019" y="29.7631" style="fill: #0000ff; stroke: #ffffff; stroke-width: 0.75"/>
     <use xlink:href="#m2681d8b8db" x="75.952366" y="32.001802" style="fill: #0000ff; stroke: #ffffff; stroke-width: 0.75"/>
     <use xlink:href="#m2681d8b8db" x="96.655539" y="33.339581" style="fill: #0000ff; stroke: #ffffff; stroke-width: 0.75"/>
     <use xlink:href="#m2681d8b8db" x="112.316886" y="35.525934" style="fill: #0000ff; stroke: #ffffff; stroke-width: 0.75"/>
    </g>
   </g>
   <g id="line2d_21">
    <path d="M 44.629673 26.840509 
L 60.291019 28.618679 
L 75.952366 31.093048 
L 96.655539 30.92794 
L 112.316886 33.878296 
" clip-path="url(#p33b1bacc18)" style="fill: none; stroke-dasharray: 8,3; stroke-dashoffset: 0; stroke: #0000ff; stroke-width: 2"/>
    <defs>
     <path id="mbaba0fbf9b" d="M -1.5 3 
L 0 1.5 
L 1.5 3 
L 3 1.5 
L 1.5 0 
L 3 -1.5 
L 1.5 -3 
L 0 -1.5 
L -1.5 -3 
L -3 -1.5 
L -1.5 0 
L -3 1.5 
z
" style="stroke: #ffffff; stroke-width: 0.75; stroke-linejoin: miter"/>
    </defs>
    <g clip-path="url(#p33b1bacc18)">
     <use xlink:href="#mbaba0fbf9b" x="44.629673" y="26.840509" style="fill: #0000ff; stroke: #ffffff; stroke-width: 0.75; stroke-linejoin: miter"/>
     <use xlink:href="#mbaba0fbf9b" x="60.291019" y="28.618679" style="fill: #0000ff; stroke: #ffffff; stroke-width: 0.75; stroke-linejoin: miter"/>
     <use xlink:href="#mbaba0fbf9b" x="75.952366" y="31.093048" style="fill: #0000ff; stroke: #ffffff; stroke-width: 0.75; stroke-linejoin: miter"/>
     <use xlink:href="#mbaba0fbf9b" x="96.655539" y="30.92794" style="fill: #0000ff; stroke: #ffffff; stroke-width: 0.75; stroke-linejoin: miter"/>
     <use xlink:href="#mbaba0fbf9b" x="112.316886" y="33.878296" style="fill: #0000ff; stroke: #ffffff; stroke-width: 0.75; stroke-linejoin: miter"/>
    </g>
   </g>
   <g id="line2d_22">
    <path d="M 44.629673 46.409877 
L 60.291019 53.943432 
L 75.952366 49.27344 
L 96.655539 55.068487 
L 112.316886 58.485626 
" clip-path="url(#p33b1bacc18)" style="fill: none; stroke: #ff0000; stroke-width: 2; stroke-linecap: square"/>
    <defs>
     <path id="m229b342a5c" d="M 0 3 
C 0.795609 3 1.55874 2.683901 2.12132 2.12132 
C 2.683901 1.55874 3 0.795609 3 0 
C 3 -0.795609 2.683901 -1.55874 2.12132 -2.12132 
C 1.55874 -2.683901 0.795609 -3 0 -3 
C -0.795609 -3 -1.55874 -2.683901 -2.12132 -2.12132 
C -2.683901 -1.55874 -3 -0.795609 -3 0 
C -3 0.795609 -2.683901 1.55874 -2.12132 2.12132 
C -1.55874 2.683901 -0.795609 3 0 3 
z
" style="stroke: #ffffff; stroke-width: 0.75"/>
    </defs>
    <g clip-path="url(#p33b1bacc18)">
     <use xlink:href="#m229b342a5c" x="44.629673" y="46.409877" style="fill: #ff0000; stroke: #ffffff; stroke-width: 0.75"/>
     <use xlink:href="#m229b342a5c" x="60.291019" y="53.943432" style="fill: #ff0000; stroke: #ffffff; stroke-width: 0.75"/>
     <use xlink:href="#m229b342a5c" x="75.952366" y="49.27344" style="fill: #ff0000; stroke: #ffffff; stroke-width: 0.75"/>
     <use xlink:href="#m229b342a5c" x="96.655539" y="55.068487" style="fill: #ff0000; stroke: #ffffff; stroke-width: 0.75"/>
     <use xlink:href="#m229b342a5c" x="112.316886" y="58.485626" style="fill: #ff0000; stroke: #ffffff; stroke-width: 0.75"/>
    </g>
   </g>
   <g id="line2d_23">
    <path d="M 44.629673 27.27187 
L 60.291019 31.585159 
L 75.952366 33.005934 
L 96.655539 36.371746 
L 112.316886 39.404385 
" clip-path="url(#p33b1bacc18)" style="fill: none; stroke-dasharray: 8,3; stroke-dashoffset: 0; stroke: #ff0000; stroke-width: 2"/>
    <defs>
     <path id="mdadfaa072d" d="M -1.5 3 
L 0 1.5 
L 1.5 3 
L 3 1.5 
L 1.5 0 
L 3 -1.5 
L 1.5 -3 
L 0 -1.5 
L -1.5 -3 
L -3 -1.5 
L -1.5 0 
L -3 1.5 
z
" style="stroke: #ffffff; stroke-width: 0.75; stroke-linejoin: miter"/>
    </defs>
    <g clip-path="url(#p33b1bacc18)">
     <use xlink:href="#mdadfaa072d" x="44.629673" y="27.27187" style="fill: #ff0000; stroke: #ffffff; stroke-width: 0.75; stroke-linejoin: miter"/>
     <use xlink:href="#mdadfaa072d" x="60.291019" y="31.585159" style="fill: #ff0000; stroke: #ffffff; stroke-width: 0.75; stroke-linejoin: miter"/>
     <use xlink:href="#mdadfaa072d" x="75.952366" y="33.005934" style="fill: #ff0000; stroke: #ffffff; stroke-width: 0.75; stroke-linejoin: miter"/>
     <use xlink:href="#mdadfaa072d" x="96.655539" y="36.371746" style="fill: #ff0000; stroke: #ffffff; stroke-width: 0.75; stroke-linejoin: miter"/>
     <use xlink:href="#mdadfaa072d" x="112.316886" y="39.404385" style="fill: #ff0000; stroke: #ffffff; stroke-width: 0.75; stroke-linejoin: miter"/>
    </g>
   </g>
   <g id="patch_3">
    <path d="M 41.245313 96.833 
L 41.245313 13 
" style="fill: none; stroke: #000000; stroke-width: 1.2; stroke-linejoin: miter; stroke-linecap: square"/>
   </g>
   <g id="patch_4">
    <path d="M 41.245313 96.833 
L 115.701246 96.833 
" style="fill: none; stroke: #000000; stroke-width: 1.2; stroke-linejoin: miter; stroke-linecap: square"/>
   </g>
  </g>
  <g id="axes_2">
   <g id="patch_5">
    <path d="M 164.894063 96.833 
L 239.349996 96.833 
L 239.349996 13 
L 164.894063 13 
z
" style="fill: #ffffff"/>
   </g>
   <g id="PolyCollection_7">
    <defs>
     <path id="m5b09288967" d="M 168.278423 -107.999949 
L 168.278423 -103.854746 
L 190.840827 -111.975187 
L 213.403231 -116.098021 
L 235.965636 -104.65718 
L 235.965636 -113.240868 
L 235.965636 -113.240868 
L 213.403231 -118.39095 
L 190.840827 -115.665674 
L 168.278423 -107.999949 
z
" style="stroke: #000000; stroke-opacity: 0.2"/>
    </defs>
    <g clip-path="url(#p328e2eb88b)">
     <use xlink:href="#m5b09288967" x="0" y="146.235938" style="fill-opacity: 0.2; stroke: #000000; stroke-opacity: 0.2"/>
    </g>
   </g>
   <g id="PolyCollection_8">
    <defs>
     <path id="m4b80b7cdbe" d="M 168.278423 -108.660738 
L 168.278423 -103.999478 
L 190.840827 -113.538325 
L 213.403231 -119.672547 
L 235.965636 -111.254439 
L 235.965636 -118.162425 
L 235.965636 -118.162425 
L 213.403231 -121.77536 
L 190.840827 -117.01426 
L 168.278423 -108.660738 
z
" style="stroke: #000000; stroke-opacity: 0.2"/>
    </defs>
    <g clip-path="url(#p328e2eb88b)">
     <use xlink:href="#m4b80b7cdbe" x="0" y="146.235938" style="fill-opacity: 0.2; stroke: #000000; stroke-opacity: 0.2"/>
    </g>
   </g>
   <g id="PolyCollection_9">
    <defs>
     <path id="me2fa271688" d="M 168.278423 -103.321735 
L 168.278423 -93.299094 
L 190.840827 -104.90153 
L 213.403231 -115.078212 
L 235.965636 -113.466015 
L 235.965636 -119.672297 
L 235.965636 -119.672297 
L 213.403231 -117.873018 
L 190.840827 -111.222683 
L 168.278423 -103.321735 
z
" style="stroke: #0000ff; stroke-opacity: 0.2"/>
    </defs>
    <g clip-path="url(#p328e2eb88b)">
     <use xlink:href="#me2fa271688" x="0" y="146.235938" style="fill: #0000ff; fill-opacity: 0.2; stroke: #0000ff; stroke-opacity: 0.2"/>
    </g>
   </g>
   <g id="PolyCollection_10">
    <defs>
     <path id="mdadbf79a60" d="M 168.278423 -104.594953 
L 168.278423 -96.050114 
L 190.840827 -106.060287 
L 213.403231 -116.344092 
L 235.965636 -116.062373 
L 235.965636 -123.280346 
L 235.965636 -123.280346 
L 213.403231 -118.809189 
L 190.840827 -113.816574 
L 168.278423 -104.594953 
z
" style="stroke: #0000ff; stroke-opacity: 0.2"/>
    </defs>
    <g clip-path="url(#p328e2eb88b)">
     <use xlink:href="#mdadbf79a60" x="0" y="146.235938" style="fill: #0000ff; fill-opacity: 0.2; stroke: #0000ff; stroke-opacity: 0.2"/>
    </g>
   </g>
   <g id="PolyCollection_11">
    <defs>
     <path id="m80456905bf" d="M 168.278423 -95.820454 
L 168.278423 -84.981656 
L 190.840827 -95.237903 
L 213.403231 -89.311718 
L 235.965636 -78.43007 
L 235.965636 -85.191243 
L 235.965636 -85.191243 
L 213.403231 -95.23126 
L 190.840827 -101.120376 
L 168.278423 -95.820454 
z
" style="stroke: #ff0000; stroke-opacity: 0.2"/>
    </defs>
    <g clip-path="url(#p328e2eb88b)">
     <use xlink:href="#m80456905bf" x="0" y="146.235938" style="fill: #ff0000; fill-opacity: 0.2; stroke: #ff0000; stroke-opacity: 0.2"/>
    </g>
   </g>
   <g id="PolyCollection_12">
    <defs>
     <path id="mc423ffb8f3" d="M 168.278423 -102.621561 
L 168.278423 -94.235985 
L 190.840827 -108.248554 
L 213.403231 -113.155846 
L 235.965636 -102.970805 
L 235.965636 -110.143544 
L 235.965636 -110.143544 
L 213.403231 -116.115917 
L 190.840827 -112.884843 
L 168.278423 -102.621561 
z
" style="stroke: #ff0000; stroke-opacity: 0.2"/>
    </defs>
    <g clip-path="url(#p328e2eb88b)">
     <use xlink:href="#mc423ffb8f3" x="0" y="146.235938" style="fill: #ff0000; fill-opacity: 0.2; stroke: #ff0000; stroke-opacity: 0.2"/>
    </g>
   </g>
   <g id="matplotlib.axis_3">
    <g id="xtick_16">
     <g id="line2d_24">
      <g>
       <use xlink:href="#m0bf175c2cd" x="213.403231" y="96.833" style="stroke: #000000; stroke-width: 0.8"/>
      </g>
     </g>
     <g id="text_7">
      <!-- 0.7 -->
      <g transform="translate(206.453231 110.990812) scale(0.1 -0.1)">
       <defs>
        <path id="ArialMT-37" d="M 303 3981 
L 303 4522 
L 3269 4522 
L 3269 4084 
Q 2831 3619 2401 2847 
Q 1972 2075 1738 1259 
Q 1569 684 1522 0 
L 944 0 
Q 953 541 1156 1306 
Q 1359 2072 1739 2783 
Q 2119 3494 2547 3981 
L 303 3981 
z
" transform="scale(0.015625)"/>
       </defs>
       <use xlink:href="#ArialMT-30"/>
       <use xlink:href="#ArialMT-2e" x="55.615234"/>
       <use xlink:href="#ArialMT-37" x="83.398438"/>
      </g>
     </g>
    </g>
    <g id="xtick_17">
     <g id="line2d_25">
      <g>
       <use xlink:href="#m0bf175c2cd" x="168.278423" y="96.833" style="stroke: #000000; stroke-width: 0.8"/>
      </g>
     </g>
     <g id="text_8">
      <!-- 0.3 -->
      <g transform="translate(161.328423 110.990812) scale(0.1 -0.1)">
       <use xlink:href="#ArialMT-30"/>
       <use xlink:href="#ArialMT-2e" x="55.615234"/>
       <use xlink:href="#ArialMT-33" x="83.398438"/>
      </g>
     </g>
    </g>
    <g id="xtick_18">
     <g id="line2d_26">
      <g>
       <use xlink:href="#m0bf175c2cd" x="190.840827" y="96.833" style="stroke: #000000; stroke-width: 0.8"/>
      </g>
     </g>
     <g id="text_9">
      <!-- 0.5 -->
      <g transform="translate(183.890827 110.990812) scale(0.1 -0.1)">
       <defs>
        <path id="ArialMT-35" d="M 266 1200 
L 856 1250 
Q 922 819 1161 601 
Q 1400 384 1738 384 
Q 2144 384 2425 690 
Q 2706 997 2706 1503 
Q 2706 1984 2436 2262 
Q 2166 2541 1728 2541 
Q 1456 2541 1237 2417 
Q 1019 2294 894 2097 
L 366 2166 
L 809 4519 
L 3088 4519 
L 3088 3981 
L 1259 3981 
L 1013 2750 
Q 1425 3038 1878 3038 
Q 2478 3038 2890 2622 
Q 3303 2206 3303 1553 
Q 3303 931 2941 478 
Q 2500 -78 1738 -78 
Q 1113 -78 717 272 
Q 322 622 266 1200 
z
" transform="scale(0.015625)"/>
       </defs>
       <use xlink:href="#ArialMT-30"/>
       <use xlink:href="#ArialMT-2e" x="55.615234"/>
       <use xlink:href="#ArialMT-35" x="83.398438"/>
      </g>
     </g>
    </g>
    <g id="xtick_19">
     <g id="line2d_27">
      <g>
       <use xlink:href="#m0bf175c2cd" x="235.965636" y="96.833" style="stroke: #000000; stroke-width: 0.8"/>
      </g>
     </g>
     <g id="text_10">
      <!-- 0.9 -->
      <g transform="translate(229.015636 110.990812) scale(0.1 -0.1)">
       <defs>
        <path id="ArialMT-39" d="M 350 1059 
L 891 1109 
Q 959 728 1153 556 
Q 1347 384 1650 384 
Q 1909 384 2104 503 
Q 2300 622 2425 820 
Q 2550 1019 2634 1356 
Q 2719 1694 2719 2044 
Q 2719 2081 2716 2156 
Q 2547 1888 2255 1720 
Q 1963 1553 1622 1553 
Q 1053 1553 659 1965 
Q 266 2378 266 3053 
Q 266 3750 677 4175 
Q 1088 4600 1706 4600 
Q 2153 4600 2523 4359 
Q 2894 4119 3086 3673 
Q 3278 3228 3278 2384 
Q 3278 1506 3087 986 
Q 2897 466 2520 194 
Q 2144 -78 1638 -78 
Q 1100 -78 759 220 
Q 419 519 350 1059 
z
M 2653 3081 
Q 2653 3566 2395 3850 
Q 2138 4134 1775 4134 
Q 1400 4134 1122 3828 
Q 844 3522 844 3034 
Q 844 2597 1108 2323 
Q 1372 2050 1759 2050 
Q 2150 2050 2401 2323 
Q 2653 2597 2653 3081 
z
" transform="scale(0.015625)"/>
       </defs>
       <use xlink:href="#ArialMT-30"/>
       <use xlink:href="#ArialMT-2e" x="55.615234"/>
       <use xlink:href="#ArialMT-39" x="83.398438"/>
      </g>
     </g>
    </g>
    <g id="text_11">
     <!-- Fraction of -->
     <g transform="translate(178.503279 124.136125) scale(0.1 -0.1)">
      <defs>
       <path id="ArialMT-46" d="M 525 0 
L 525 4581 
L 3616 4581 
L 3616 4041 
L 1131 4041 
L 1131 2622 
L 3281 2622 
L 3281 2081 
L 1131 2081 
L 1131 0 
L 525 0 
z
" transform="scale(0.015625)"/>
      </defs>
      <use xlink:href="#ArialMT-46"/>
      <use xlink:href="#ArialMT-72" x="61.083984"/>
      <use xlink:href="#ArialMT-61" x="94.384766"/>
      <use xlink:href="#ArialMT-63" x="150"/>
      <use xlink:href="#ArialMT-74" x="200"/>
      <use xlink:href="#ArialMT-69" x="227.783203"/>
      <use xlink:href="#ArialMT-6f" x="250"/>
      <use xlink:href="#ArialMT-6e" x="305.615234"/>
      <use xlink:href="#ArialMT-20" x="361.230469"/>
      <use xlink:href="#ArialMT-6f" x="389.013672"/>
      <use xlink:href="#ArialMT-66" x="444.628906"/>
     </g>
     <!-- characters edited -->
     <g transform="translate(163.770467 134.713) scale(0.1 -0.1)">
      <defs>
       <path id="ArialMT-68" d="M 422 0 
L 422 4581 
L 984 4581 
L 984 2938 
Q 1378 3394 1978 3394 
Q 2347 3394 2619 3248 
Q 2891 3103 3008 2847 
Q 3125 2591 3125 2103 
L 3125 0 
L 2563 0 
L 2563 2103 
Q 2563 2525 2380 2717 
Q 2197 2909 1863 2909 
Q 1613 2909 1392 2779 
Q 1172 2650 1078 2428 
Q 984 2206 984 1816 
L 984 0 
L 422 0 
z
" transform="scale(0.015625)"/>
       <path id="ArialMT-64" d="M 2575 0 
L 2575 419 
Q 2259 -75 1647 -75 
Q 1250 -75 917 144 
Q 584 363 401 755 
Q 219 1147 219 1656 
Q 219 2153 384 2558 
Q 550 2963 881 3178 
Q 1213 3394 1622 3394 
Q 1922 3394 2156 3267 
Q 2391 3141 2538 2938 
L 2538 4581 
L 3097 4581 
L 3097 0 
L 2575 0 
z
M 797 1656 
Q 797 1019 1065 703 
Q 1334 388 1700 388 
Q 2069 388 2326 689 
Q 2584 991 2584 1609 
Q 2584 2291 2321 2609 
Q 2059 2928 1675 2928 
Q 1300 2928 1048 2622 
Q 797 2316 797 1656 
z
" transform="scale(0.015625)"/>
      </defs>
      <use xlink:href="#ArialMT-63"/>
      <use xlink:href="#ArialMT-68" x="50"/>
      <use xlink:href="#ArialMT-61" x="105.615234"/>
      <use xlink:href="#ArialMT-72" x="161.230469"/>
      <use xlink:href="#ArialMT-61" x="194.53125"/>
      <use xlink:href="#ArialMT-63" x="250.146484"/>
      <use xlink:href="#ArialMT-74" x="300.146484"/>
      <use xlink:href="#ArialMT-65" x="327.929688"/>
      <use xlink:href="#ArialMT-72" x="383.544922"/>
      <use xlink:href="#ArialMT-73" x="416.845703"/>
      <use xlink:href="#ArialMT-20" x="466.845703"/>
      <use xlink:href="#ArialMT-65" x="494.628906"/>
      <use xlink:href="#ArialMT-64" x="550.244141"/>
      <use xlink:href="#ArialMT-69" x="605.859375"/>
      <use xlink:href="#ArialMT-74" x="628.076172"/>
      <use xlink:href="#ArialMT-65" x="655.859375"/>
      <use xlink:href="#ArialMT-64" x="711.474609"/>
     </g>
    </g>
   </g>
   <g id="matplotlib.axis_4">
    <g id="ytick_3">
     <g id="line2d_28">
      <g>
       <use xlink:href="#m1c9fa0b1df" x="164.894063" y="90.400233" style="stroke: #000000; stroke-width: 0.8"/>
      </g>
     </g>
     <g id="text_12">
      <!-- 0.6 -->
      <g transform="translate(143.994063 93.979139) scale(0.1 -0.1)">
       <use xlink:href="#ArialMT-30"/>
       <use xlink:href="#ArialMT-2e" x="55.615234"/>
       <use xlink:href="#ArialMT-36" x="83.398438"/>
      </g>
     </g>
    </g>
    <g id="ytick_4">
     <g id="line2d_29">
      <g>
       <use xlink:href="#m1c9fa0b1df" x="164.894063" y="48.993918" style="stroke: #000000; stroke-width: 0.8"/>
      </g>
     </g>
     <g id="text_13">
      <!-- 0.8 -->
      <g transform="translate(143.994063 52.572824) scale(0.1 -0.1)">
       <use xlink:href="#ArialMT-30"/>
       <use xlink:href="#ArialMT-2e" x="55.615234"/>
       <use xlink:href="#ArialMT-38" x="83.398438"/>
      </g>
     </g>
    </g>
    <g id="text_14">
     <!-- Mean triplets correct -->
     <g transform="translate(138.006563 100.206344) rotate(-90) scale(0.1 -0.1)">
      <use xlink:href="#ArialMT-4d"/>
      <use xlink:href="#ArialMT-65" x="83.300781"/>
      <use xlink:href="#ArialMT-61" x="138.916016"/>
      <use xlink:href="#ArialMT-6e" x="194.53125"/>
      <use xlink:href="#ArialMT-20" x="250.146484"/>
      <use xlink:href="#ArialMT-74" x="277.929688"/>
      <use xlink:href="#ArialMT-72" x="305.712891"/>
      <use xlink:href="#ArialMT-69" x="339.013672"/>
      <use xlink:href="#ArialMT-70" x="361.230469"/>
      <use xlink:href="#ArialMT-6c" x="416.845703"/>
      <use xlink:href="#ArialMT-65" x="439.0625"/>
      <use xlink:href="#ArialMT-74" x="494.677734"/>
      <use xlink:href="#ArialMT-73" x="522.460938"/>
      <use xlink:href="#ArialMT-20" x="572.460938"/>
      <use xlink:href="#ArialMT-63" x="600.244141"/>
      <use xlink:href="#ArialMT-6f" x="650.244141"/>
      <use xlink:href="#ArialMT-72" x="705.859375"/>
      <use xlink:href="#ArialMT-72" x="739.160156"/>
      <use xlink:href="#ArialMT-65" x="772.460938"/>
      <use xlink:href="#ArialMT-63" x="828.076172"/>
      <use xlink:href="#ArialMT-74" x="878.076172"/>
     </g>
    </g>
   </g>
   <g id="line2d_30">
    <path d="M 168.278423 40.163674 
L 190.840827 32.445424 
L 213.403231 29.011249 
L 235.965636 37.258848 
" clip-path="url(#p328e2eb88b)" style="fill: none; stroke: #000000; stroke-width: 2; stroke-linecap: square"/>
    <g clip-path="url(#p328e2eb88b)">
     <use xlink:href="#mb9174f76ed" x="168.278423" y="40.163674" style="stroke: #ffffff; stroke-width: 0.75"/>
     <use xlink:href="#mb9174f76ed" x="190.840827" y="32.445424" style="stroke: #ffffff; stroke-width: 0.75"/>
     <use xlink:href="#mb9174f76ed" x="213.403231" y="29.011249" style="stroke: #ffffff; stroke-width: 0.75"/>
     <use xlink:href="#mb9174f76ed" x="235.965636" y="37.258848" style="stroke: #ffffff; stroke-width: 0.75"/>
    </g>
   </g>
   <g id="line2d_31">
    <path d="M 168.278423 40.054611 
L 190.840827 31.001215 
L 213.403231 25.547037 
L 235.965636 31.228361 
" clip-path="url(#p328e2eb88b)" style="fill: none; stroke-dasharray: 8,3; stroke-dashoffset: 0; stroke: #000000; stroke-width: 2"/>
    <g clip-path="url(#p328e2eb88b)">
     <use xlink:href="#m5d11e2bc01" x="168.278423" y="40.054611" style="stroke: #ffffff; stroke-width: 0.75; stroke-linejoin: miter"/>
     <use xlink:href="#m5d11e2bc01" x="190.840827" y="31.001215" style="stroke: #ffffff; stroke-width: 0.75; stroke-linejoin: miter"/>
     <use xlink:href="#m5d11e2bc01" x="213.403231" y="25.547037" style="stroke: #ffffff; stroke-width: 0.75; stroke-linejoin: miter"/>
     <use xlink:href="#m5d11e2bc01" x="235.965636" y="31.228361" style="stroke: #ffffff; stroke-width: 0.75; stroke-linejoin: miter"/>
    </g>
   </g>
   <g id="line2d_32">
    <path d="M 168.278423 47.663764 
L 190.840827 38.10021 
L 213.403231 29.7631 
L 235.965636 29.536831 
" clip-path="url(#p328e2eb88b)" style="fill: none; stroke: #0000ff; stroke-width: 2; stroke-linecap: square"/>
    <g clip-path="url(#p328e2eb88b)">
     <use xlink:href="#m2681d8b8db" x="168.278423" y="47.663764" style="fill: #0000ff; stroke: #ffffff; stroke-width: 0.75"/>
     <use xlink:href="#m2681d8b8db" x="190.840827" y="38.10021" style="fill: #0000ff; stroke: #ffffff; stroke-width: 0.75"/>
     <use xlink:href="#m2681d8b8db" x="213.403231" y="29.7631" style="fill: #0000ff; stroke: #ffffff; stroke-width: 0.75"/>
     <use xlink:href="#m2681d8b8db" x="235.965636" y="29.536831" style="fill: #0000ff; stroke: #ffffff; stroke-width: 0.75"/>
    </g>
   </g>
   <g id="line2d_33">
    <path d="M 168.278423 45.778244 
L 190.840827 36.093924 
L 213.403231 28.618679 
L 235.965636 26.267659 
" clip-path="url(#p328e2eb88b)" style="fill: none; stroke-dasharray: 8,3; stroke-dashoffset: 0; stroke: #0000ff; stroke-width: 2"/>
    <g clip-path="url(#p328e2eb88b)">
     <use xlink:href="#mbaba0fbf9b" x="168.278423" y="45.778244" style="fill: #0000ff; stroke: #ffffff; stroke-width: 0.75; stroke-linejoin: miter"/>
     <use xlink:href="#mbaba0fbf9b" x="190.840827" y="36.093924" style="fill: #0000ff; stroke: #ffffff; stroke-width: 0.75; stroke-linejoin: miter"/>
     <use xlink:href="#mbaba0fbf9b" x="213.403231" y="28.618679" style="fill: #0000ff; stroke: #ffffff; stroke-width: 0.75; stroke-linejoin: miter"/>
     <use xlink:href="#mbaba0fbf9b" x="235.965636" y="26.267659" style="fill: #0000ff; stroke: #ffffff; stroke-width: 0.75; stroke-linejoin: miter"/>
    </g>
   </g>
   <g id="line2d_34">
    <path d="M 168.278423 55.784273 
L 190.840827 48.151693 
L 213.403231 53.943432 
L 235.965636 64.314007 
" clip-path="url(#p328e2eb88b)" style="fill: none; stroke: #ff0000; stroke-width: 2; stroke-linecap: square"/>
    <g clip-path="url(#p328e2eb88b)">
     <use xlink:href="#m229b342a5c" x="168.278423" y="55.784273" style="fill: #ff0000; stroke: #ffffff; stroke-width: 0.75"/>
     <use xlink:href="#m229b342a5c" x="190.840827" y="48.151693" style="fill: #ff0000; stroke: #ffffff; stroke-width: 0.75"/>
     <use xlink:href="#m229b342a5c" x="213.403231" y="53.943432" style="fill: #ff0000; stroke: #ffffff; stroke-width: 0.75"/>
     <use xlink:href="#m229b342a5c" x="235.965636" y="64.314007" style="fill: #ff0000; stroke: #ffffff; stroke-width: 0.75"/>
    </g>
   </g>
   <g id="line2d_35">
    <path d="M 168.278423 47.704561 
L 190.840827 35.729765 
L 213.403231 31.585159 
L 235.965636 39.717458 
" clip-path="url(#p328e2eb88b)" style="fill: none; stroke-dasharray: 8,3; stroke-dashoffset: 0; stroke: #ff0000; stroke-width: 2"/>
    <g clip-path="url(#p328e2eb88b)">
     <use xlink:href="#mdadfaa072d" x="168.278423" y="47.704561" style="fill: #ff0000; stroke: #ffffff; stroke-width: 0.75; stroke-linejoin: miter"/>
     <use xlink:href="#mdadfaa072d" x="190.840827" y="35.729765" style="fill: #ff0000; stroke: #ffffff; stroke-width: 0.75; stroke-linejoin: miter"/>
     <use xlink:href="#mdadfaa072d" x="213.403231" y="31.585159" style="fill: #ff0000; stroke: #ffffff; stroke-width: 0.75; stroke-linejoin: miter"/>
     <use xlink:href="#mdadfaa072d" x="235.965636" y="39.717458" style="fill: #ff0000; stroke: #ffffff; stroke-width: 0.75; stroke-linejoin: miter"/>
    </g>
   </g>
   <g id="patch_6">
    <path d="M 164.894063 96.833 
L 164.894063 13 
" style="fill: none; stroke: #000000; stroke-width: 1.2; stroke-linejoin: miter; stroke-linecap: square"/>
   </g>
   <g id="patch_7">
    <path d="M 164.894063 96.833 
L 239.349996 96.833 
" style="fill: none; stroke: #000000; stroke-width: 1.2; stroke-linejoin: miter; stroke-linecap: square"/>
   </g>
  </g>
  <g id="axes_3">
   <g id="patch_8">
    <path d="M 288.542813 96.833 
L 362.998746 96.833 
L 362.998746 13 
L 288.542813 13 
z
" style="fill: #ffffff"/>
   </g>
   <g id="PolyCollection_13">
    <defs>
     <path id="mab1a728dd1" d="M 291.927173 -87.979026 
L 291.927173 -79.263773 
L 308.848976 -102.946754 
L 325.770779 -116.149011 
L 342.692583 -118.221002 
L 359.614386 -121.344919 
L 359.614386 -127.057253 
L 359.614386 -127.057253 
L 342.692583 -121.880653 
L 325.770779 -118.471878 
L 308.848976 -111.157693 
L 291.927173 -87.979026 
z
" style="stroke: #000000; stroke-opacity: 0.2"/>
    </defs>
    <g clip-path="url(#pcb84e1bc2b)">
     <use xlink:href="#mab1a728dd1" x="0" y="146.235938" style="fill-opacity: 0.2; stroke: #000000; stroke-opacity: 0.2"/>
    </g>
   </g>
   <g id="PolyCollection_14">
    <defs>
     <path id="mdeb01277a5" d="M 291.927173 -93.624371 
L 291.927173 -83.227773 
L 308.848976 -107.965682 
L 325.770779 -119.630383 
L 342.692583 -122.590051 
L 359.614386 -125.228349 
L 359.614386 -128.913034 
L 359.614386 -128.913034 
L 342.692583 -126.68546 
L 325.770779 -121.836339 
L 308.848976 -114.838155 
L 291.927173 -93.624371 
z
" style="stroke: #000000; stroke-opacity: 0.2"/>
    </defs>
    <g clip-path="url(#pcb84e1bc2b)">
     <use xlink:href="#mdeb01277a5" x="0" y="146.235938" style="fill-opacity: 0.2; stroke: #000000; stroke-opacity: 0.2"/>
    </g>
   </g>
   <g id="PolyCollection_15">
    <defs>
     <path id="m38327295ce" d="M 291.927173 -91.333655 
L 291.927173 -80.422109 
L 308.848976 -106.060918 
L 325.770779 -115.01163 
L 342.692583 -117.392442 
L 359.614386 -121.836329 
L 359.614386 -127.37981 
L 359.614386 -127.37981 
L 342.692583 -122.777265 
L 325.770779 -117.660615 
L 308.848976 -112.260068 
L 291.927173 -91.333655 
z
" style="stroke: #0000ff; stroke-opacity: 0.2"/>
    </defs>
    <g clip-path="url(#pcb84e1bc2b)">
     <use xlink:href="#m38327295ce" x="0" y="146.235938" style="fill: #0000ff; fill-opacity: 0.2; stroke: #0000ff; stroke-opacity: 0.2"/>
    </g>
   </g>
   <g id="PolyCollection_16">
    <defs>
     <path id="mb5fa031196" d="M 291.927173 -94.245353 
L 291.927173 -86.664166 
L 308.848976 -106.801708 
L 325.770779 -116.385935 
L 342.692583 -119.661796 
L 359.614386 -122.769343 
L 359.614386 -129.009535 
L 359.614386 -129.009535 
L 342.692583 -125.169086 
L 325.770779 -118.795794 
L 308.848976 -111.966236 
L 291.927173 -94.245353 
z
" style="stroke: #0000ff; stroke-opacity: 0.2"/>
    </defs>
    <g clip-path="url(#pcb84e1bc2b)">
     <use xlink:href="#mb5fa031196" x="0" y="146.235938" style="fill: #0000ff; fill-opacity: 0.2; stroke: #0000ff; stroke-opacity: 0.2"/>
    </g>
   </g>
   <g id="PolyCollection_17">
    <defs>
     <path id="m6993f3a8cf" d="M 291.927173 -72.308507 
L 291.927173 -64.37448 
L 308.848976 -83.264203 
L 325.770779 -89.245329 
L 342.692583 -92.913583 
L 359.614386 -91.675965 
L 359.614386 -105.179112 
L 359.614386 -105.179112 
L 342.692583 -101.576855 
L 325.770779 -94.861272 
L 308.848976 -92.29241 
L 291.927173 -72.308507 
z
" style="stroke: #ff0000; stroke-opacity: 0.2"/>
    </defs>
    <g clip-path="url(#pcb84e1bc2b)">
     <use xlink:href="#m6993f3a8cf" x="0" y="146.235938" style="fill: #ff0000; fill-opacity: 0.2; stroke: #ff0000; stroke-opacity: 0.2"/>
    </g>
   </g>
   <g id="PolyCollection_18">
    <defs>
     <path id="me4699b567e" d="M 291.927173 -85.348889 
L 291.927173 -77.96037 
L 308.848976 -100.844623 
L 325.770779 -113.087932 
L 342.692583 -115.94435 
L 359.614386 -119.154649 
L 359.614386 -122.79713 
L 359.614386 -122.79713 
L 342.692583 -120.14933 
L 325.770779 -116.028247 
L 308.848976 -106.300561 
L 291.927173 -85.348889 
z
" style="stroke: #ff0000; stroke-opacity: 0.2"/>
    </defs>
    <g clip-path="url(#pcb84e1bc2b)">
     <use xlink:href="#me4699b567e" x="0" y="146.235938" style="fill: #ff0000; fill-opacity: 0.2; stroke: #ff0000; stroke-opacity: 0.2"/>
    </g>
   </g>
   <g id="matplotlib.axis_5">
    <g id="xtick_20">
     <g id="line2d_36">
      <g>
       <use xlink:href="#m0bf175c2cd" x="325.770779" y="96.833" style="stroke: #000000; stroke-width: 0.8"/>
      </g>
     </g>
     <g id="text_15">
      <!-- 60 -->
      <g transform="translate(320.209842 110.990812) scale(0.1 -0.1)">
       <use xlink:href="#ArialMT-36"/>
       <use xlink:href="#ArialMT-30" x="55.615234"/>
      </g>
     </g>
    </g>
    <g id="xtick_21">
     <g id="line2d_37">
      <g>
       <use xlink:href="#m0bf175c2cd" x="291.927173" y="96.833" style="stroke: #000000; stroke-width: 0.8"/>
      </g>
     </g>
     <g id="text_16">
      <!-- 20 -->
      <g transform="translate(286.366236 110.990812) scale(0.1 -0.1)">
       <defs>
        <path id="ArialMT-32" d="M 3222 541 
L 3222 0 
L 194 0 
Q 188 203 259 391 
Q 375 700 629 1000 
Q 884 1300 1366 1694 
Q 2113 2306 2375 2664 
Q 2638 3022 2638 3341 
Q 2638 3675 2398 3904 
Q 2159 4134 1775 4134 
Q 1369 4134 1125 3890 
Q 881 3647 878 3216 
L 300 3275 
Q 359 3922 746 4261 
Q 1134 4600 1788 4600 
Q 2447 4600 2831 4234 
Q 3216 3869 3216 3328 
Q 3216 3053 3103 2787 
Q 2991 2522 2730 2228 
Q 2469 1934 1863 1422 
Q 1356 997 1212 845 
Q 1069 694 975 541 
L 3222 541 
z
" transform="scale(0.015625)"/>
       </defs>
       <use xlink:href="#ArialMT-32"/>
       <use xlink:href="#ArialMT-30" x="55.615234"/>
      </g>
     </g>
    </g>
    <g id="xtick_22">
     <g id="line2d_38">
      <g>
       <use xlink:href="#m0bf175c2cd" x="308.848976" y="96.833" style="stroke: #000000; stroke-width: 0.8"/>
      </g>
     </g>
     <g id="text_17">
      <!-- 40 -->
      <g transform="translate(303.288039 110.990812) scale(0.1 -0.1)">
       <use xlink:href="#ArialMT-34"/>
       <use xlink:href="#ArialMT-30" x="55.615234"/>
      </g>
     </g>
    </g>
    <g id="xtick_23">
     <g id="line2d_39">
      <g>
       <use xlink:href="#m0bf175c2cd" x="342.692583" y="96.833" style="stroke: #000000; stroke-width: 0.8"/>
      </g>
     </g>
     <g id="text_18">
      <!-- 80 -->
      <g transform="translate(337.131645 110.990812) scale(0.1 -0.1)">
       <use xlink:href="#ArialMT-38"/>
       <use xlink:href="#ArialMT-30" x="55.615234"/>
      </g>
     </g>
    </g>
    <g id="xtick_24">
     <g id="line2d_40">
      <g>
       <use xlink:href="#m0bf175c2cd" x="359.614386" y="96.833" style="stroke: #000000; stroke-width: 0.8"/>
      </g>
     </g>
     <g id="text_19">
      <!-- 100 -->
      <g transform="translate(351.272979 110.990812) scale(0.1 -0.1)">
       <use xlink:href="#ArialMT-31"/>
       <use xlink:href="#ArialMT-30" x="55.615234"/>
       <use xlink:href="#ArialMT-30" x="111.230469"/>
      </g>
     </g>
    </g>
    <g id="text_20">
     <!-- Number of characters -->
     <g transform="translate(277.700467 124.136125) scale(0.1 -0.1)">
      <use xlink:href="#ArialMT-4e"/>
      <use xlink:href="#ArialMT-75" x="72.216797"/>
      <use xlink:href="#ArialMT-6d" x="127.832031"/>
      <use xlink:href="#ArialMT-62" x="211.132812"/>
      <use xlink:href="#ArialMT-65" x="266.748047"/>
      <use xlink:href="#ArialMT-72" x="322.363281"/>
      <use xlink:href="#ArialMT-20" x="355.664062"/>
      <use xlink:href="#ArialMT-6f" x="383.447266"/>
      <use xlink:href="#ArialMT-66" x="439.0625"/>
      <use xlink:href="#ArialMT-20" x="466.845703"/>
      <use xlink:href="#ArialMT-63" x="494.628906"/>
      <use xlink:href="#ArialMT-68" x="544.628906"/>
      <use xlink:href="#ArialMT-61" x="600.244141"/>
      <use xlink:href="#ArialMT-72" x="655.859375"/>
      <use xlink:href="#ArialMT-61" x="689.160156"/>
      <use xlink:href="#ArialMT-63" x="744.775391"/>
      <use xlink:href="#ArialMT-74" x="794.775391"/>
      <use xlink:href="#ArialMT-65" x="822.558594"/>
      <use xlink:href="#ArialMT-72" x="878.173828"/>
      <use xlink:href="#ArialMT-73" x="911.474609"/>
     </g>
    </g>
   </g>
   <g id="matplotlib.axis_6">
    <g id="ytick_5">
     <g id="line2d_41">
      <g>
       <use xlink:href="#m1c9fa0b1df" x="288.542813" y="90.400233" style="stroke: #000000; stroke-width: 0.8"/>
      </g>
     </g>
     <g id="text_21">
      <!-- 0.6 -->
      <g transform="translate(267.642813 93.979139) scale(0.1 -0.1)">
       <use xlink:href="#ArialMT-30"/>
       <use xlink:href="#ArialMT-2e" x="55.615234"/>
       <use xlink:href="#ArialMT-36" x="83.398438"/>
      </g>
     </g>
    </g>
    <g id="ytick_6">
     <g id="line2d_42">
      <g>
       <use xlink:href="#m1c9fa0b1df" x="288.542813" y="48.993918" style="stroke: #000000; stroke-width: 0.8"/>
      </g>
     </g>
     <g id="text_22">
      <!-- 0.8 -->
      <g transform="translate(267.642813 52.572824) scale(0.1 -0.1)">
       <use xlink:href="#ArialMT-30"/>
       <use xlink:href="#ArialMT-2e" x="55.615234"/>
       <use xlink:href="#ArialMT-38" x="83.398438"/>
      </g>
     </g>
    </g>
    <g id="text_23">
     <!-- Mean triplets correct -->
     <g transform="translate(261.655313 100.206344) rotate(-90) scale(0.1 -0.1)">
      <use xlink:href="#ArialMT-4d"/>
      <use xlink:href="#ArialMT-65" x="83.300781"/>
      <use xlink:href="#ArialMT-61" x="138.916016"/>
      <use xlink:href="#ArialMT-6e" x="194.53125"/>
      <use xlink:href="#ArialMT-20" x="250.146484"/>
      <use xlink:href="#ArialMT-74" x="277.929688"/>
      <use xlink:href="#ArialMT-72" x="305.712891"/>
      <use xlink:href="#ArialMT-69" x="339.013672"/>
      <use xlink:href="#ArialMT-70" x="361.230469"/>
      <use xlink:href="#ArialMT-6c" x="416.845703"/>
      <use xlink:href="#ArialMT-65" x="439.0625"/>
      <use xlink:href="#ArialMT-74" x="494.677734"/>
      <use xlink:href="#ArialMT-73" x="522.460938"/>
      <use xlink:href="#ArialMT-20" x="572.460938"/>
      <use xlink:href="#ArialMT-63" x="600.244141"/>
      <use xlink:href="#ArialMT-6f" x="650.244141"/>
      <use xlink:href="#ArialMT-72" x="705.859375"/>
      <use xlink:href="#ArialMT-72" x="739.160156"/>
      <use xlink:href="#ArialMT-65" x="772.460938"/>
      <use xlink:href="#ArialMT-63" x="828.076172"/>
      <use xlink:href="#ArialMT-74" x="878.076172"/>
     </g>
    </g>
   </g>
   <g id="line2d_43">
    <path d="M 291.927173 62.474571 
L 308.848976 39.139021 
L 325.770779 29.011249 
L 342.692583 26.187015 
L 359.614386 21.793516 
" clip-path="url(#pcb84e1bc2b)" style="fill: none; stroke: #000000; stroke-width: 2; stroke-linecap: square"/>
    <g clip-path="url(#pcb84e1bc2b)">
     <use xlink:href="#mb9174f76ed" x="291.927173" y="62.474571" style="stroke: #ffffff; stroke-width: 0.75"/>
     <use xlink:href="#mb9174f76ed" x="308.848976" y="39.139021" style="stroke: #ffffff; stroke-width: 0.75"/>
     <use xlink:href="#mb9174f76ed" x="325.770779" y="29.011249" style="stroke: #ffffff; stroke-width: 0.75"/>
     <use xlink:href="#mb9174f76ed" x="342.692583" y="26.187015" style="stroke: #ffffff; stroke-width: 0.75"/>
     <use xlink:href="#mb9174f76ed" x="359.614386" y="21.793516" style="stroke: #ffffff; stroke-width: 0.75"/>
    </g>
   </g>
   <g id="line2d_44">
    <path d="M 291.927173 57.535623 
L 308.848976 34.896005 
L 325.770779 25.547037 
L 342.692583 21.431384 
L 359.614386 19.144555 
" clip-path="url(#pcb84e1bc2b)" style="fill: none; stroke-dasharray: 8,3; stroke-dashoffset: 0; stroke: #000000; stroke-width: 2"/>
    <g clip-path="url(#pcb84e1bc2b)">
     <use xlink:href="#m5d11e2bc01" x="291.927173" y="57.535623" style="stroke: #ffffff; stroke-width: 0.75; stroke-linejoin: miter"/>
     <use xlink:href="#m5d11e2bc01" x="308.848976" y="34.896005" style="stroke: #ffffff; stroke-width: 0.75; stroke-linejoin: miter"/>
     <use xlink:href="#m5d11e2bc01" x="325.770779" y="25.547037" style="stroke: #ffffff; stroke-width: 0.75; stroke-linejoin: miter"/>
     <use xlink:href="#m5d11e2bc01" x="342.692583" y="21.431384" style="stroke: #ffffff; stroke-width: 0.75; stroke-linejoin: miter"/>
     <use xlink:href="#m5d11e2bc01" x="359.614386" y="19.144555" style="stroke: #ffffff; stroke-width: 0.75; stroke-linejoin: miter"/>
    </g>
   </g>
   <g id="line2d_45">
    <path d="M 291.927173 60.174841 
L 308.848976 37.139514 
L 325.770779 29.7631 
L 342.692583 26.34807 
L 359.614386 21.452703 
" clip-path="url(#pcb84e1bc2b)" style="fill: none; stroke: #0000ff; stroke-width: 2; stroke-linecap: square"/>
    <g clip-path="url(#pcb84e1bc2b)">
     <use xlink:href="#m2681d8b8db" x="291.927173" y="60.174841" style="fill: #0000ff; stroke: #ffffff; stroke-width: 0.75"/>
     <use xlink:href="#m2681d8b8db" x="308.848976" y="37.139514" style="fill: #0000ff; stroke: #ffffff; stroke-width: 0.75"/>
     <use xlink:href="#m2681d8b8db" x="325.770779" y="29.7631" style="fill: #0000ff; stroke: #ffffff; stroke-width: 0.75"/>
     <use xlink:href="#m2681d8b8db" x="342.692583" y="26.34807" style="fill: #0000ff; stroke: #ffffff; stroke-width: 0.75"/>
     <use xlink:href="#m2681d8b8db" x="359.614386" y="21.452703" style="fill: #0000ff; stroke: #ffffff; stroke-width: 0.75"/>
    </g>
   </g>
   <g id="line2d_46">
    <path d="M 291.927173 55.818954 
L 308.848976 36.778714 
L 325.770779 28.618679 
L 342.692583 23.742028 
L 359.614386 20.053587 
" clip-path="url(#pcb84e1bc2b)" style="fill: none; stroke-dasharray: 8,3; stroke-dashoffset: 0; stroke: #0000ff; stroke-width: 2"/>
    <g clip-path="url(#pcb84e1bc2b)">
     <use xlink:href="#mbaba0fbf9b" x="291.927173" y="55.818954" style="fill: #0000ff; stroke: #ffffff; stroke-width: 0.75; stroke-linejoin: miter"/>
     <use xlink:href="#mbaba0fbf9b" x="308.848976" y="36.778714" style="fill: #0000ff; stroke: #ffffff; stroke-width: 0.75; stroke-linejoin: miter"/>
     <use xlink:href="#mbaba0fbf9b" x="325.770779" y="28.618679" style="fill: #0000ff; stroke: #ffffff; stroke-width: 0.75; stroke-linejoin: miter"/>
     <use xlink:href="#mbaba0fbf9b" x="342.692583" y="23.742028" style="fill: #0000ff; stroke: #ffffff; stroke-width: 0.75; stroke-linejoin: miter"/>
     <use xlink:href="#mbaba0fbf9b" x="359.614386" y="20.053587" style="fill: #0000ff; stroke: #ffffff; stroke-width: 0.75; stroke-linejoin: miter"/>
    </g>
   </g>
   <g id="line2d_47">
    <path d="M 291.927173 78.041278 
L 308.848976 58.592267 
L 325.770779 53.943432 
L 342.692583 48.754052 
L 359.614386 47.34783 
" clip-path="url(#pcb84e1bc2b)" style="fill: none; stroke: #ff0000; stroke-width: 2; stroke-linecap: square"/>
    <g clip-path="url(#pcb84e1bc2b)">
     <use xlink:href="#m229b342a5c" x="291.927173" y="78.041278" style="fill: #ff0000; stroke: #ffffff; stroke-width: 0.75"/>
     <use xlink:href="#m229b342a5c" x="308.848976" y="58.592267" style="fill: #ff0000; stroke: #ffffff; stroke-width: 0.75"/>
     <use xlink:href="#m229b342a5c" x="325.770779" y="53.943432" style="fill: #ff0000; stroke: #ffffff; stroke-width: 0.75"/>
     <use xlink:href="#m229b342a5c" x="342.692583" y="48.754052" style="fill: #ff0000; stroke: #ffffff; stroke-width: 0.75"/>
     <use xlink:href="#m229b342a5c" x="359.614386" y="47.34783" style="fill: #ff0000; stroke: #ffffff; stroke-width: 0.75"/>
    </g>
   </g>
   <g id="line2d_48">
    <path d="M 291.927173 64.535847 
L 308.848976 42.838295 
L 325.770779 31.585159 
L 342.692583 28.153781 
L 359.614386 25.333227 
" clip-path="url(#pcb84e1bc2b)" style="fill: none; stroke-dasharray: 8,3; stroke-dashoffset: 0; stroke: #ff0000; stroke-width: 2"/>
    <g clip-path="url(#pcb84e1bc2b)">
     <use xlink:href="#mdadfaa072d" x="291.927173" y="64.535847" style="fill: #ff0000; stroke: #ffffff; stroke-width: 0.75; stroke-linejoin: miter"/>
     <use xlink:href="#mdadfaa072d" x="308.848976" y="42.838295" style="fill: #ff0000; stroke: #ffffff; stroke-width: 0.75; stroke-linejoin: miter"/>
     <use xlink:href="#mdadfaa072d" x="325.770779" y="31.585159" style="fill: #ff0000; stroke: #ffffff; stroke-width: 0.75; stroke-linejoin: miter"/>
     <use xlink:href="#mdadfaa072d" x="342.692583" y="28.153781" style="fill: #ff0000; stroke: #ffffff; stroke-width: 0.75; stroke-linejoin: miter"/>
     <use xlink:href="#mdadfaa072d" x="359.614386" y="25.333227" style="fill: #ff0000; stroke: #ffffff; stroke-width: 0.75; stroke-linejoin: miter"/>
    </g>
   </g>
   <g id="patch_9">
    <path d="M 288.542813 96.833 
L 288.542813 13 
" style="fill: none; stroke: #000000; stroke-width: 1.2; stroke-linejoin: miter; stroke-linecap: square"/>
   </g>
   <g id="patch_10">
    <path d="M 288.542813 96.833 
L 362.998746 96.833 
" style="fill: none; stroke: #000000; stroke-width: 1.2; stroke-linejoin: miter; stroke-linecap: square"/>
   </g>
  </g>
  <g id="axes_4">
   <g id="patch_11">
    <path d="M 412.191563 96.833 
L 486.647496 96.833 
L 486.647496 13 
L 412.191563 13 
z
" style="fill: #ffffff"/>
   </g>
   <g id="PolyCollection_19">
    <defs>
     <path id="m219c829d4d" d="M 415.575923 -126.309352 
L 415.575923 -121.373176 
L 429.113366 -116.148328 
L 442.650808 -109.557414 
L 456.188251 -102.081993 
L 469.725693 -95.721953 
L 483.263136 -83.587306 
L 483.263136 -89.973206 
L 483.263136 -89.973206 
L 469.725693 -103.429393 
L 456.188251 -108.802025 
L 442.650808 -115.235327 
L 429.113366 -118.300933 
L 415.575923 -126.309352 
z
" style="stroke: #000000; stroke-opacity: 0.2"/>
    </defs>
    <g clip-path="url(#p9e0255d32a)">
     <use xlink:href="#m219c829d4d" x="0" y="146.235938" style="fill-opacity: 0.2; stroke: #000000; stroke-opacity: 0.2"/>
    </g>
   </g>
   <g id="PolyCollection_20">
    <defs>
     <path id="m8655c47701" d="M 415.575923 -127.146784 
L 415.575923 -122.978362 
L 429.113366 -119.636723 
L 442.650808 -111.65206 
L 456.188251 -104.064242 
L 469.725693 -95.319612 
L 483.263136 -86.248827 
L 483.263136 -92.279151 
L 483.263136 -92.279151 
L 469.725693 -103.88854 
L 456.188251 -112.018312 
L 442.650808 -117.591945 
L 429.113366 -121.732813 
L 415.575923 -127.146784 
z
" style="stroke: #000000; stroke-opacity: 0.2"/>
    </defs>
    <g clip-path="url(#p9e0255d32a)">
     <use xlink:href="#m8655c47701" x="0" y="146.235938" style="fill-opacity: 0.2; stroke: #000000; stroke-opacity: 0.2"/>
    </g>
   </g>
   <g id="PolyCollection_21">
    <defs>
     <path id="m556bff205c" d="M 415.575923 -119.741222 
L 415.575923 -114.119481 
L 429.113366 -115.131191 
L 442.650808 -110.335203 
L 456.188251 -107.543683 
L 469.725693 -101.290798 
L 483.263136 -87.347887 
L 483.263136 -96.063799 
L 483.263136 -96.063799 
L 469.725693 -107.921846 
L 456.188251 -112.750344 
L 442.650808 -115.633188 
L 429.113366 -117.756204 
L 415.575923 -119.741222 
z
" style="stroke: #0000ff; stroke-opacity: 0.2"/>
    </defs>
    <g clip-path="url(#p9e0255d32a)">
     <use xlink:href="#m556bff205c" x="0" y="146.235938" style="fill: #0000ff; fill-opacity: 0.2; stroke: #0000ff; stroke-opacity: 0.2"/>
    </g>
   </g>
   <g id="PolyCollection_22">
    <defs>
     <path id="mb27337260e" d="M 415.575923 -121.591663 
L 415.575923 -117.043844 
L 429.113366 -116.361357 
L 442.650808 -112.657107 
L 456.188251 -108.793691 
L 469.725693 -101.618269 
L 483.263136 -91.750968 
L 483.263136 -99.239361 
L 483.263136 -99.239361 
L 469.725693 -108.761774 
L 456.188251 -113.983368 
L 442.650808 -118.300015 
L 429.113366 -118.857315 
L 415.575923 -121.591663 
z
" style="stroke: #0000ff; stroke-opacity: 0.2"/>
    </defs>
    <g clip-path="url(#p9e0255d32a)">
     <use xlink:href="#mb27337260e" x="0" y="146.235938" style="fill: #0000ff; fill-opacity: 0.2; stroke: #0000ff; stroke-opacity: 0.2"/>
    </g>
   </g>
   <g id="PolyCollection_23">
    <defs>
     <path id="m601089aee6" d="M 415.575923 -103.390312 
L 415.575923 -95.019831 
L 429.113366 -89.443567 
L 442.650808 -79.954126 
L 456.188251 -74.156681 
L 469.725693 -66.787515 
L 483.263136 -55.730457 
L 483.263136 -64.287252 
L 483.263136 -64.287252 
L 469.725693 -75.333978 
L 456.188251 -84.742076 
L 442.650808 -93.080085 
L 429.113366 -95.429385 
L 415.575923 -103.390312 
z
" style="stroke: #ff0000; stroke-opacity: 0.2"/>
    </defs>
    <g clip-path="url(#p9e0255d32a)">
     <use xlink:href="#m601089aee6" x="0" y="146.235938" style="fill: #ff0000; fill-opacity: 0.2; stroke: #ff0000; stroke-opacity: 0.2"/>
    </g>
   </g>
   <g id="PolyCollection_24">
    <defs>
     <path id="m0aeb270940" d="M 415.575923 -122.499635 
L 415.575923 -117.533528 
L 429.113366 -113.043989 
L 442.650808 -103.814139 
L 456.188251 -95.193587 
L 469.725693 -82.448048 
L 483.263136 -72.61596 
L 483.263136 -79.567178 
L 483.263136 -79.567178 
L 469.725693 -89.257046 
L 456.188251 -101.303208 
L 442.650808 -110.101287 
L 429.113366 -116.157991 
L 415.575923 -122.499635 
z
" style="stroke: #ff0000; stroke-opacity: 0.2"/>
    </defs>
    <g clip-path="url(#p9e0255d32a)">
     <use xlink:href="#m0aeb270940" x="0" y="146.235938" style="fill: #ff0000; fill-opacity: 0.2; stroke: #ff0000; stroke-opacity: 0.2"/>
    </g>
   </g>
   <g id="matplotlib.axis_7">
    <g id="xtick_25">
     <g id="line2d_49">
      <g>
       <use xlink:href="#m0bf175c2cd" x="429.113366" y="96.833" style="stroke: #000000; stroke-width: 0.8"/>
      </g>
     </g>
     <g id="text_24">
      <!-- 0.1 -->
      <g transform="translate(422.163366 110.990812) scale(0.1 -0.1)">
       <use xlink:href="#ArialMT-30"/>
       <use xlink:href="#ArialMT-2e" x="55.615234"/>
       <use xlink:href="#ArialMT-31" x="83.398438"/>
      </g>
     </g>
    </g>
    <g id="xtick_26">
     <g id="line2d_50">
      <g>
       <use xlink:href="#m0bf175c2cd" x="415.575923" y="96.833" style="stroke: #000000; stroke-width: 0.8"/>
      </g>
     </g>
     <g id="text_25">
      <!-- 0.0 -->
      <g transform="translate(408.625923 110.990812) scale(0.1 -0.1)">
       <use xlink:href="#ArialMT-30"/>
       <use xlink:href="#ArialMT-2e" x="55.615234"/>
       <use xlink:href="#ArialMT-30" x="83.398438"/>
      </g>
     </g>
    </g>
    <g id="xtick_27">
     <g id="line2d_51">
      <g>
       <use xlink:href="#m0bf175c2cd" x="442.650808" y="96.833" style="stroke: #000000; stroke-width: 0.8"/>
      </g>
     </g>
     <g id="text_26">
      <!-- 0.2 -->
      <g transform="translate(435.700808 110.990812) scale(0.1 -0.1)">
       <use xlink:href="#ArialMT-30"/>
       <use xlink:href="#ArialMT-2e" x="55.615234"/>
       <use xlink:href="#ArialMT-32" x="83.398438"/>
      </g>
     </g>
    </g>
    <g id="xtick_28">
     <g id="line2d_52">
      <g>
       <use xlink:href="#m0bf175c2cd" x="456.188251" y="96.833" style="stroke: #000000; stroke-width: 0.8"/>
      </g>
     </g>
     <g id="text_27">
      <!-- 0.3 -->
      <g transform="translate(449.238251 110.990812) scale(0.1 -0.1)">
       <use xlink:href="#ArialMT-30"/>
       <use xlink:href="#ArialMT-2e" x="55.615234"/>
       <use xlink:href="#ArialMT-33" x="83.398438"/>
      </g>
     </g>
    </g>
    <g id="xtick_29">
     <g id="line2d_53">
      <g>
       <use xlink:href="#m0bf175c2cd" x="469.725693" y="96.833" style="stroke: #000000; stroke-width: 0.8"/>
      </g>
     </g>
     <g id="text_28">
      <!-- 0.4 -->
      <g transform="translate(462.775693 110.990812) scale(0.1 -0.1)">
       <use xlink:href="#ArialMT-30"/>
       <use xlink:href="#ArialMT-2e" x="55.615234"/>
       <use xlink:href="#ArialMT-34" x="83.398438"/>
      </g>
     </g>
    </g>
    <g id="xtick_30">
     <g id="line2d_54">
      <g>
       <use xlink:href="#m0bf175c2cd" x="483.263136" y="96.833" style="stroke: #000000; stroke-width: 0.8"/>
      </g>
     </g>
     <g id="text_29">
      <!-- 0.5 -->
      <g transform="translate(476.313136 110.990812) scale(0.1 -0.1)">
       <use xlink:href="#ArialMT-30"/>
       <use xlink:href="#ArialMT-2e" x="55.615234"/>
       <use xlink:href="#ArialMT-35" x="83.398438"/>
      </g>
     </g>
    </g>
    <g id="text_30">
     <!-- Fraction of -->
     <g transform="translate(425.800779 124.136125) scale(0.1 -0.1)">
      <use xlink:href="#ArialMT-46"/>
      <use xlink:href="#ArialMT-72" x="61.083984"/>
      <use xlink:href="#ArialMT-61" x="94.384766"/>
      <use xlink:href="#ArialMT-63" x="150"/>
      <use xlink:href="#ArialMT-74" x="200"/>
      <use xlink:href="#ArialMT-69" x="227.783203"/>
      <use xlink:href="#ArialMT-6f" x="250"/>
      <use xlink:href="#ArialMT-6e" x="305.615234"/>
      <use xlink:href="#ArialMT-20" x="361.230469"/>
      <use xlink:href="#ArialMT-6f" x="389.013672"/>
      <use xlink:href="#ArialMT-66" x="444.628906"/>
     </g>
     <!-- characters missing -->
     <g transform="translate(407.742186 134.713) scale(0.1 -0.1)">
      <defs>
       <path id="ArialMT-67" d="M 319 -275 
L 866 -356 
Q 900 -609 1056 -725 
Q 1266 -881 1628 -881 
Q 2019 -881 2231 -725 
Q 2444 -569 2519 -288 
Q 2563 -116 2559 434 
Q 2191 0 1641 0 
Q 956 0 581 494 
Q 206 988 206 1678 
Q 206 2153 378 2554 
Q 550 2956 876 3175 
Q 1203 3394 1644 3394 
Q 2231 3394 2613 2919 
L 2613 3319 
L 3131 3319 
L 3131 450 
Q 3131 -325 2973 -648 
Q 2816 -972 2473 -1159 
Q 2131 -1347 1631 -1347 
Q 1038 -1347 672 -1080 
Q 306 -813 319 -275 
z
M 784 1719 
Q 784 1066 1043 766 
Q 1303 466 1694 466 
Q 2081 466 2343 764 
Q 2606 1063 2606 1700 
Q 2606 2309 2336 2618 
Q 2066 2928 1684 2928 
Q 1309 2928 1046 2623 
Q 784 2319 784 1719 
z
" transform="scale(0.015625)"/>
      </defs>
      <use xlink:href="#ArialMT-63"/>
      <use xlink:href="#ArialMT-68" x="50"/>
      <use xlink:href="#ArialMT-61" x="105.615234"/>
      <use xlink:href="#ArialMT-72" x="161.230469"/>
      <use xlink:href="#ArialMT-61" x="194.53125"/>
      <use xlink:href="#ArialMT-63" x="250.146484"/>
      <use xlink:href="#ArialMT-74" x="300.146484"/>
      <use xlink:href="#ArialMT-65" x="327.929688"/>
      <use xlink:href="#ArialMT-72" x="383.544922"/>
      <use xlink:href="#ArialMT-73" x="416.845703"/>
      <use xlink:href="#ArialMT-20" x="466.845703"/>
      <use xlink:href="#ArialMT-6d" x="494.628906"/>
      <use xlink:href="#ArialMT-69" x="577.929688"/>
      <use xlink:href="#ArialMT-73" x="600.146484"/>
      <use xlink:href="#ArialMT-73" x="650.146484"/>
      <use xlink:href="#ArialMT-69" x="700.146484"/>
      <use xlink:href="#ArialMT-6e" x="722.363281"/>
      <use xlink:href="#ArialMT-67" x="777.978516"/>
     </g>
    </g>
   </g>
   <g id="matplotlib.axis_8">
    <g id="ytick_7">
     <g id="line2d_55">
      <g>
       <use xlink:href="#m1c9fa0b1df" x="412.191563" y="90.400233" style="stroke: #000000; stroke-width: 0.8"/>
      </g>
     </g>
     <g id="text_31">
      <!-- 0.6 -->
      <g transform="translate(391.291563 93.979139) scale(0.1 -0.1)">
       <use xlink:href="#ArialMT-30"/>
       <use xlink:href="#ArialMT-2e" x="55.615234"/>
       <use xlink:href="#ArialMT-36" x="83.398438"/>
      </g>
     </g>
    </g>
    <g id="ytick_8">
     <g id="line2d_56">
      <g>
       <use xlink:href="#m1c9fa0b1df" x="412.191563" y="48.993918" style="stroke: #000000; stroke-width: 0.8"/>
      </g>
     </g>
     <g id="text_32">
      <!-- 0.8 -->
      <g transform="translate(391.291563 52.572824) scale(0.1 -0.1)">
       <use xlink:href="#ArialMT-30"/>
       <use xlink:href="#ArialMT-2e" x="55.615234"/>
       <use xlink:href="#ArialMT-38" x="83.398438"/>
      </g>
     </g>
    </g>
    <g id="text_33">
     <!-- Mean triplets correct -->
     <g transform="translate(385.304063 100.206344) rotate(-90) scale(0.1 -0.1)">
      <use xlink:href="#ArialMT-4d"/>
      <use xlink:href="#ArialMT-65" x="83.300781"/>
      <use xlink:href="#ArialMT-61" x="138.916016"/>
      <use xlink:href="#ArialMT-6e" x="194.53125"/>
      <use xlink:href="#ArialMT-20" x="250.146484"/>
      <use xlink:href="#ArialMT-74" x="277.929688"/>
      <use xlink:href="#ArialMT-72" x="305.712891"/>
      <use xlink:href="#ArialMT-69" x="339.013672"/>
      <use xlink:href="#ArialMT-70" x="361.230469"/>
      <use xlink:href="#ArialMT-6c" x="416.845703"/>
      <use xlink:href="#ArialMT-65" x="439.0625"/>
      <use xlink:href="#ArialMT-74" x="494.677734"/>
      <use xlink:href="#ArialMT-73" x="522.460938"/>
      <use xlink:href="#ArialMT-20" x="572.460938"/>
      <use xlink:href="#ArialMT-63" x="600.244141"/>
      <use xlink:href="#ArialMT-6f" x="650.244141"/>
      <use xlink:href="#ArialMT-72" x="705.859375"/>
      <use xlink:href="#ArialMT-72" x="739.160156"/>
      <use xlink:href="#ArialMT-65" x="772.460938"/>
      <use xlink:href="#ArialMT-63" x="828.076172"/>
      <use xlink:href="#ArialMT-74" x="878.076172"/>
     </g>
    </g>
   </g>
   <g id="line2d_57">
    <path d="M 415.575923 22.298903 
L 429.113366 29.011249 
L 442.650808 33.865544 
L 456.188251 40.8566 
L 469.725693 46.860181 
L 483.263136 59.317514 
" clip-path="url(#p9e0255d32a)" style="fill: none; stroke: #000000; stroke-width: 2; stroke-linecap: square"/>
    <g clip-path="url(#p9e0255d32a)">
     <use xlink:href="#mb9174f76ed" x="415.575923" y="22.298903" style="stroke: #ffffff; stroke-width: 0.75"/>
     <use xlink:href="#mb9174f76ed" x="429.113366" y="29.011249" style="stroke: #ffffff; stroke-width: 0.75"/>
     <use xlink:href="#mb9174f76ed" x="442.650808" y="33.865544" style="stroke: #ffffff; stroke-width: 0.75"/>
     <use xlink:href="#mb9174f76ed" x="456.188251" y="40.8566" style="stroke: #ffffff; stroke-width: 0.75"/>
     <use xlink:href="#mb9174f76ed" x="469.725693" y="46.860181" style="stroke: #ffffff; stroke-width: 0.75"/>
     <use xlink:href="#mb9174f76ed" x="483.263136" y="59.317514" style="stroke: #ffffff; stroke-width: 0.75"/>
    </g>
   </g>
   <g id="line2d_58">
    <path d="M 415.575923 21.168426 
L 429.113366 25.547037 
L 442.650808 31.806075 
L 456.188251 38.525508 
L 469.725693 46.9102 
L 483.263136 57.003016 
" clip-path="url(#p9e0255d32a)" style="fill: none; stroke-dasharray: 8,3; stroke-dashoffset: 0; stroke: #000000; stroke-width: 2"/>
    <g clip-path="url(#p9e0255d32a)">
     <use xlink:href="#m5d11e2bc01" x="415.575923" y="21.168426" style="stroke: #ffffff; stroke-width: 0.75; stroke-linejoin: miter"/>
     <use xlink:href="#m5d11e2bc01" x="429.113366" y="25.547037" style="stroke: #ffffff; stroke-width: 0.75; stroke-linejoin: miter"/>
     <use xlink:href="#m5d11e2bc01" x="442.650808" y="31.806075" style="stroke: #ffffff; stroke-width: 0.75; stroke-linejoin: miter"/>
     <use xlink:href="#m5d11e2bc01" x="456.188251" y="38.525508" style="stroke: #ffffff; stroke-width: 0.75; stroke-linejoin: miter"/>
     <use xlink:href="#m5d11e2bc01" x="469.725693" y="46.9102" style="stroke: #ffffff; stroke-width: 0.75; stroke-linejoin: miter"/>
     <use xlink:href="#m5d11e2bc01" x="483.263136" y="57.003016" style="stroke: #ffffff; stroke-width: 0.75; stroke-linejoin: miter"/>
    </g>
   </g>
   <g id="line2d_59">
    <path d="M 415.575923 29.185152 
L 429.113366 29.7631 
L 442.650808 33.360686 
L 456.188251 36.089066 
L 469.725693 41.695399 
L 483.263136 54.507368 
" clip-path="url(#p9e0255d32a)" style="fill: none; stroke: #0000ff; stroke-width: 2; stroke-linecap: square"/>
    <g clip-path="url(#p9e0255d32a)">
     <use xlink:href="#m2681d8b8db" x="415.575923" y="29.185152" style="fill: #0000ff; stroke: #ffffff; stroke-width: 0.75"/>
     <use xlink:href="#m2681d8b8db" x="429.113366" y="29.7631" style="fill: #0000ff; stroke: #ffffff; stroke-width: 0.75"/>
     <use xlink:href="#m2681d8b8db" x="442.650808" y="33.360686" style="fill: #0000ff; stroke: #ffffff; stroke-width: 0.75"/>
     <use xlink:href="#m2681d8b8db" x="456.188251" y="36.089066" style="fill: #0000ff; stroke: #ffffff; stroke-width: 0.75"/>
     <use xlink:href="#m2681d8b8db" x="469.725693" y="41.695399" style="fill: #0000ff; stroke: #ffffff; stroke-width: 0.75"/>
     <use xlink:href="#m2681d8b8db" x="483.263136" y="54.507368" style="fill: #0000ff; stroke: #ffffff; stroke-width: 0.75"/>
    </g>
   </g>
   <g id="line2d_60">
    <path d="M 415.575923 26.712657 
L 429.113366 28.618679 
L 442.650808 30.712983 
L 456.188251 34.759447 
L 469.725693 41.041069 
L 483.263136 51.071668 
" clip-path="url(#p9e0255d32a)" style="fill: none; stroke-dasharray: 8,3; stroke-dashoffset: 0; stroke: #0000ff; stroke-width: 2"/>
    <g clip-path="url(#p9e0255d32a)">
     <use xlink:href="#mbaba0fbf9b" x="415.575923" y="26.712657" style="fill: #0000ff; stroke: #ffffff; stroke-width: 0.75; stroke-linejoin: miter"/>
     <use xlink:href="#mbaba0fbf9b" x="429.113366" y="28.618679" style="fill: #0000ff; stroke: #ffffff; stroke-width: 0.75; stroke-linejoin: miter"/>
     <use xlink:href="#mbaba0fbf9b" x="442.650808" y="30.712983" style="fill: #0000ff; stroke: #ffffff; stroke-width: 0.75; stroke-linejoin: miter"/>
     <use xlink:href="#mbaba0fbf9b" x="456.188251" y="34.759447" style="fill: #0000ff; stroke: #ffffff; stroke-width: 0.75; stroke-linejoin: miter"/>
     <use xlink:href="#mbaba0fbf9b" x="469.725693" y="41.041069" style="fill: #0000ff; stroke: #ffffff; stroke-width: 0.75; stroke-linejoin: miter"/>
     <use xlink:href="#mbaba0fbf9b" x="483.263136" y="51.071668" style="fill: #0000ff; stroke: #ffffff; stroke-width: 0.75; stroke-linejoin: miter"/>
    </g>
   </g>
   <g id="line2d_61">
    <path d="M 415.575923 46.651932 
L 429.113366 53.943432 
L 442.650808 59.350623 
L 456.188251 66.893096 
L 469.725693 75.476729 
L 483.263136 85.983562 
" clip-path="url(#p9e0255d32a)" style="fill: none; stroke: #ff0000; stroke-width: 2; stroke-linecap: square"/>
    <g clip-path="url(#p9e0255d32a)">
     <use xlink:href="#m229b342a5c" x="415.575923" y="46.651932" style="fill: #ff0000; stroke: #ffffff; stroke-width: 0.75"/>
     <use xlink:href="#m229b342a5c" x="429.113366" y="53.943432" style="fill: #ff0000; stroke: #ffffff; stroke-width: 0.75"/>
     <use xlink:href="#m229b342a5c" x="442.650808" y="59.350623" style="fill: #ff0000; stroke: #ffffff; stroke-width: 0.75"/>
     <use xlink:href="#m229b342a5c" x="456.188251" y="66.893096" style="fill: #ff0000; stroke: #ffffff; stroke-width: 0.75"/>
     <use xlink:href="#m229b342a5c" x="469.725693" y="75.476729" style="fill: #ff0000; stroke: #ffffff; stroke-width: 0.75"/>
     <use xlink:href="#m229b342a5c" x="483.263136" y="85.983562" style="fill: #ff0000; stroke: #ffffff; stroke-width: 0.75"/>
    </g>
   </g>
   <g id="line2d_62">
    <path d="M 415.575923 26.218585 
L 429.113366 31.585159 
L 442.650808 38.826266 
L 456.188251 47.761752 
L 469.725693 60.362541 
L 483.263136 69.897041 
" clip-path="url(#p9e0255d32a)" style="fill: none; stroke-dasharray: 8,3; stroke-dashoffset: 0; stroke: #ff0000; stroke-width: 2"/>
    <g clip-path="url(#p9e0255d32a)">
     <use xlink:href="#mdadfaa072d" x="415.575923" y="26.218585" style="fill: #ff0000; stroke: #ffffff; stroke-width: 0.75; stroke-linejoin: miter"/>
     <use xlink:href="#mdadfaa072d" x="429.113366" y="31.585159" style="fill: #ff0000; stroke: #ffffff; stroke-width: 0.75; stroke-linejoin: miter"/>
     <use xlink:href="#mdadfaa072d" x="442.650808" y="38.826266" style="fill: #ff0000; stroke: #ffffff; stroke-width: 0.75; stroke-linejoin: miter"/>
     <use xlink:href="#mdadfaa072d" x="456.188251" y="47.761752" style="fill: #ff0000; stroke: #ffffff; stroke-width: 0.75; stroke-linejoin: miter"/>
     <use xlink:href="#mdadfaa072d" x="469.725693" y="60.362541" style="fill: #ff0000; stroke: #ffffff; stroke-width: 0.75; stroke-linejoin: miter"/>
     <use xlink:href="#mdadfaa072d" x="483.263136" y="69.897041" style="fill: #ff0000; stroke: #ffffff; stroke-width: 0.75; stroke-linejoin: miter"/>
    </g>
   </g>
   <g id="patch_12">
    <path d="M 412.191563 96.833 
L 412.191563 13 
" style="fill: none; stroke: #000000; stroke-width: 1.2; stroke-linejoin: miter; stroke-linecap: square"/>
   </g>
   <g id="patch_13">
    <path d="M 412.191563 96.833 
L 486.647496 96.833 
" style="fill: none; stroke: #000000; stroke-width: 1.2; stroke-linejoin: miter; stroke-linecap: square"/>
   </g>
  </g>
  <g id="legend_1">
   <g id="patch_14">
    <path d="M 497.7725 88.408437 
L 579.242812 88.408437 
Q 581.242812 88.408437 581.242812 86.408437 
L 581.242812 9.2 
Q 581.242812 7.2 579.242812 7.2 
L 497.7725 7.2 
Q 495.7725 7.2 495.7725 9.2 
L 495.7725 86.408437 
Q 495.7725 88.408437 497.7725 88.408437 
z
" style="fill: #ffffff; opacity: 0.8; stroke: #cccccc; stroke-linejoin: miter"/>
   </g>
   <g id="text_34">
    <!-- Solver -->
    <g transform="translate(524.335781 18.357812) scale(0.1 -0.1)">
     <defs>
      <path id="ArialMT-53" d="M 288 1472 
L 859 1522 
Q 900 1178 1048 958 
Q 1197 738 1509 602 
Q 1822 466 2213 466 
Q 2559 466 2825 569 
Q 3091 672 3220 851 
Q 3350 1031 3350 1244 
Q 3350 1459 3225 1620 
Q 3100 1781 2813 1891 
Q 2628 1963 1997 2114 
Q 1366 2266 1113 2400 
Q 784 2572 623 2826 
Q 463 3081 463 3397 
Q 463 3744 659 4045 
Q 856 4347 1234 4503 
Q 1613 4659 2075 4659 
Q 2584 4659 2973 4495 
Q 3363 4331 3572 4012 
Q 3781 3694 3797 3291 
L 3216 3247 
Q 3169 3681 2898 3903 
Q 2628 4125 2100 4125 
Q 1550 4125 1298 3923 
Q 1047 3722 1047 3438 
Q 1047 3191 1225 3031 
Q 1400 2872 2139 2705 
Q 2878 2538 3153 2413 
Q 3553 2228 3743 1945 
Q 3934 1663 3934 1294 
Q 3934 928 3725 604 
Q 3516 281 3123 101 
Q 2731 -78 2241 -78 
Q 1619 -78 1198 103 
Q 778 284 539 648 
Q 300 1013 288 1472 
z
" transform="scale(0.015625)"/>
      <path id="ArialMT-76" d="M 1344 0 
L 81 3319 
L 675 3319 
L 1388 1331 
Q 1503 1009 1600 663 
Q 1675 925 1809 1294 
L 2547 3319 
L 3125 3319 
L 1869 0 
L 1344 0 
z
" transform="scale(0.015625)"/>
     </defs>
     <use xlink:href="#ArialMT-53"/>
     <use xlink:href="#ArialMT-6f" x="66.699219"/>
     <use xlink:href="#ArialMT-6c" x="122.314453"/>
     <use xlink:href="#ArialMT-76" x="144.53125"/>
     <use xlink:href="#ArialMT-65" x="194.53125"/>
     <use xlink:href="#ArialMT-72" x="250.146484"/>
    </g>
   </g>
   <g id="line2d_63">
    <path d="M 499.7725 35.4025 
L 509.7725 35.4025 
L 519.7725 35.4025 
" style="fill: none; stroke: #000000; stroke-width: 2; stroke-linecap: square"/>
   </g>
   <g id="text_35">
    <!-- Neighbor -->
    <g transform="translate(527.7725 32.503125) scale(0.1 -0.1)">
     <use xlink:href="#ArialMT-4e"/>
     <use xlink:href="#ArialMT-65" x="72.216797"/>
     <use xlink:href="#ArialMT-69" x="127.832031"/>
     <use xlink:href="#ArialMT-67" x="150.048828"/>
     <use xlink:href="#ArialMT-68" x="205.664062"/>
     <use xlink:href="#ArialMT-62" x="261.279297"/>
     <use xlink:href="#ArialMT-6f" x="316.894531"/>
     <use xlink:href="#ArialMT-72" x="372.509766"/>
    </g>
    <!-- Joining -->
    <g transform="translate(527.7725 43.197187) scale(0.1 -0.1)">
     <defs>
      <path id="ArialMT-4a" d="M 184 1300 
L 731 1375 
Q 753 850 928 656 
Q 1103 463 1413 463 
Q 1641 463 1806 567 
Q 1972 672 2034 851 
Q 2097 1031 2097 1425 
L 2097 4581 
L 2703 4581 
L 2703 1459 
Q 2703 884 2564 568 
Q 2425 253 2123 87 
Q 1822 -78 1416 -78 
Q 813 -78 492 269 
Q 172 616 184 1300 
z
" transform="scale(0.015625)"/>
     </defs>
     <use xlink:href="#ArialMT-4a"/>
     <use xlink:href="#ArialMT-6f" x="50"/>
     <use xlink:href="#ArialMT-69" x="105.615234"/>
     <use xlink:href="#ArialMT-6e" x="127.832031"/>
     <use xlink:href="#ArialMT-69" x="183.447266"/>
     <use xlink:href="#ArialMT-6e" x="205.664062"/>
     <use xlink:href="#ArialMT-67" x="261.279297"/>
    </g>
   </g>
   <g id="line2d_64">
    <path d="M 499.7725 53.959688 
L 509.7725 53.959688 
L 519.7725 53.959688 
" style="fill: none; stroke: #0000ff; stroke-width: 2; stroke-linecap: square"/>
   </g>
   <g id="text_36">
    <!-- UPGMA -->
    <g transform="translate(527.7725 57.459688) scale(0.1 -0.1)">
     <defs>
      <path id="ArialMT-55" d="M 3500 4581 
L 4106 4581 
L 4106 1934 
Q 4106 1244 3950 837 
Q 3794 431 3386 176 
Q 2978 -78 2316 -78 
Q 1672 -78 1262 144 
Q 853 366 678 786 
Q 503 1206 503 1934 
L 503 4581 
L 1109 4581 
L 1109 1938 
Q 1109 1341 1220 1058 
Q 1331 775 1601 622 
Q 1872 469 2263 469 
Q 2931 469 3215 772 
Q 3500 1075 3500 1938 
L 3500 4581 
z
" transform="scale(0.015625)"/>
      <path id="ArialMT-50" d="M 494 0 
L 494 4581 
L 2222 4581 
Q 2678 4581 2919 4538 
Q 3256 4481 3484 4323 
Q 3713 4166 3852 3881 
Q 3991 3597 3991 3256 
Q 3991 2672 3619 2267 
Q 3247 1863 2275 1863 
L 1100 1863 
L 1100 0 
L 494 0 
z
M 1100 2403 
L 2284 2403 
Q 2872 2403 3119 2622 
Q 3366 2841 3366 3238 
Q 3366 3525 3220 3729 
Q 3075 3934 2838 4000 
Q 2684 4041 2272 4041 
L 1100 4041 
L 1100 2403 
z
" transform="scale(0.015625)"/>
      <path id="ArialMT-47" d="M 2638 1797 
L 2638 2334 
L 4578 2338 
L 4578 638 
Q 4131 281 3656 101 
Q 3181 -78 2681 -78 
Q 2006 -78 1454 211 
Q 903 500 622 1047 
Q 341 1594 341 2269 
Q 341 2938 620 3517 
Q 900 4097 1425 4378 
Q 1950 4659 2634 4659 
Q 3131 4659 3532 4498 
Q 3934 4338 4162 4050 
Q 4391 3763 4509 3300 
L 3963 3150 
Q 3859 3500 3706 3700 
Q 3553 3900 3268 4020 
Q 2984 4141 2638 4141 
Q 2222 4141 1919 4014 
Q 1616 3888 1430 3681 
Q 1244 3475 1141 3228 
Q 966 2803 966 2306 
Q 966 1694 1177 1281 
Q 1388 869 1791 669 
Q 2194 469 2647 469 
Q 3041 469 3416 620 
Q 3791 772 3984 944 
L 3984 1797 
L 2638 1797 
z
" transform="scale(0.015625)"/>
      <path id="ArialMT-41" d="M -9 0 
L 1750 4581 
L 2403 4581 
L 4278 0 
L 3588 0 
L 3053 1388 
L 1138 1388 
L 634 0 
L -9 0 
z
M 1313 1881 
L 2866 1881 
L 2388 3150 
Q 2169 3728 2063 4100 
Q 1975 3659 1816 3225 
L 1313 1881 
z
" transform="scale(0.015625)"/>
     </defs>
     <use xlink:href="#ArialMT-55"/>
     <use xlink:href="#ArialMT-50" x="72.216797"/>
     <use xlink:href="#ArialMT-47" x="138.916016"/>
     <use xlink:href="#ArialMT-4d" x="216.699219"/>
     <use xlink:href="#ArialMT-41" x="300"/>
    </g>
   </g>
   <g id="line2d_65">
    <path d="M 499.7725 74.506719 
L 509.7725 74.506719 
L 519.7725 74.506719 
" style="fill: none; stroke: #ff0000; stroke-width: 2; stroke-linecap: square"/>
   </g>
   <g id="text_37">
    <!-- Cassiopeia -->
    <g transform="translate(527.7725 71.726875) scale(0.1 -0.1)">
     <defs>
      <path id="ArialMT-43" d="M 3763 1606 
L 4369 1453 
Q 4178 706 3683 314 
Q 3188 -78 2472 -78 
Q 1731 -78 1267 223 
Q 803 525 561 1097 
Q 319 1669 319 2325 
Q 319 3041 592 3573 
Q 866 4106 1370 4382 
Q 1875 4659 2481 4659 
Q 3169 4659 3637 4309 
Q 4106 3959 4291 3325 
L 3694 3184 
Q 3534 3684 3231 3912 
Q 2928 4141 2469 4141 
Q 1941 4141 1586 3887 
Q 1231 3634 1087 3207 
Q 944 2781 944 2328 
Q 944 1744 1114 1308 
Q 1284 872 1643 656 
Q 2003 441 2422 441 
Q 2931 441 3284 734 
Q 3638 1028 3763 1606 
z
" transform="scale(0.015625)"/>
     </defs>
     <use xlink:href="#ArialMT-43"/>
     <use xlink:href="#ArialMT-61" x="72.216797"/>
     <use xlink:href="#ArialMT-73" x="127.832031"/>
     <use xlink:href="#ArialMT-73" x="177.832031"/>
     <use xlink:href="#ArialMT-69" x="227.832031"/>
     <use xlink:href="#ArialMT-6f" x="250.048828"/>
     <use xlink:href="#ArialMT-70" x="305.664062"/>
     <use xlink:href="#ArialMT-65" x="361.279297"/>
     <use xlink:href="#ArialMT-69" x="416.894531"/>
     <use xlink:href="#ArialMT-61" x="439.111328"/>
    </g>
    <!-- Hybrid -->
    <g transform="translate(527.7725 82.30375) scale(0.1 -0.1)">
     <defs>
      <path id="ArialMT-48" d="M 513 0 
L 513 4581 
L 1119 4581 
L 1119 2700 
L 3500 2700 
L 3500 4581 
L 4106 4581 
L 4106 0 
L 3500 0 
L 3500 2159 
L 1119 2159 
L 1119 0 
L 513 0 
z
" transform="scale(0.015625)"/>
      <path id="ArialMT-79" d="M 397 -1278 
L 334 -750 
Q 519 -800 656 -800 
Q 844 -800 956 -737 
Q 1069 -675 1141 -563 
Q 1194 -478 1313 -144 
Q 1328 -97 1363 -6 
L 103 3319 
L 709 3319 
L 1400 1397 
Q 1534 1031 1641 628 
Q 1738 1016 1872 1384 
L 2581 3319 
L 3144 3319 
L 1881 -56 
Q 1678 -603 1566 -809 
Q 1416 -1088 1222 -1217 
Q 1028 -1347 759 -1347 
Q 597 -1347 397 -1278 
z
" transform="scale(0.015625)"/>
     </defs>
     <use xlink:href="#ArialMT-48"/>
     <use xlink:href="#ArialMT-79" x="72.216797"/>
     <use xlink:href="#ArialMT-62" x="122.216797"/>
     <use xlink:href="#ArialMT-72" x="177.832031"/>
     <use xlink:href="#ArialMT-69" x="211.132812"/>
     <use xlink:href="#ArialMT-64" x="233.349609"/>
    </g>
   </g>
  </g>
  <g id="legend_2">
   <g id="patch_15">
    <path d="M 500.76 139.035937 
L 579.242812 139.035937 
Q 581.242812 139.035937 581.242812 137.035937 
L 581.242812 95.6 
Q 581.242812 93.6 579.242812 93.6 
L 500.76 93.6 
Q 498.76 93.6 498.76 95.6 
L 498.76 137.035937 
Q 498.76 139.035937 500.76 139.035937 
z
" style="fill: #ffffff; opacity: 0.8; stroke: #cccccc; stroke-linejoin: miter"/>
   </g>
   <g id="text_38">
    <!-- State distribution -->
    <g transform="translate(502.76 104.757812) scale(0.1 -0.1)">
     <use xlink:href="#ArialMT-53"/>
     <use xlink:href="#ArialMT-74" x="66.699219"/>
     <use xlink:href="#ArialMT-61" x="94.482422"/>
     <use xlink:href="#ArialMT-74" x="150.097656"/>
     <use xlink:href="#ArialMT-65" x="177.880859"/>
     <use xlink:href="#ArialMT-20" x="233.496094"/>
     <use xlink:href="#ArialMT-64" x="261.279297"/>
     <use xlink:href="#ArialMT-69" x="316.894531"/>
     <use xlink:href="#ArialMT-73" x="339.111328"/>
     <use xlink:href="#ArialMT-74" x="389.111328"/>
     <use xlink:href="#ArialMT-72" x="416.894531"/>
     <use xlink:href="#ArialMT-69" x="450.195312"/>
     <use xlink:href="#ArialMT-62" x="472.412109"/>
     <use xlink:href="#ArialMT-75" x="528.027344"/>
     <use xlink:href="#ArialMT-74" x="583.642578"/>
     <use xlink:href="#ArialMT-69" x="611.425781"/>
     <use xlink:href="#ArialMT-6f" x="633.642578"/>
     <use xlink:href="#ArialMT-6e" x="689.257812"/>
    </g>
   </g>
   <g id="line2d_66">
    <path d="M 505.160781 115.403125 
L 515.160781 115.403125 
L 525.160781 115.403125 
" style="fill: none; stroke: #000000; stroke-width: 2; stroke-linecap: square"/>
    <defs>
     <path id="m63e14d23d4" d="M 0 3 
C 0.795609 3 1.55874 2.683901 2.12132 2.12132 
C 2.683901 1.55874 3 0.795609 3 0 
C 3 -0.795609 2.683901 -1.55874 2.12132 -2.12132 
C 1.55874 -2.683901 0.795609 -3 0 -3 
C -0.795609 -3 -1.55874 -2.683901 -2.12132 -2.12132 
C -2.683901 -1.55874 -3 -0.795609 -3 0 
C -3 0.795609 -2.683901 1.55874 -2.12132 2.12132 
C -1.55874 2.683901 -0.795609 3 0 3 
z
" style="stroke: #000000"/>
    </defs>
    <g>
     <use xlink:href="#m63e14d23d4" x="515.160781" y="115.403125" style="stroke: #000000"/>
    </g>
   </g>
   <g id="text_39">
    <!-- 8 uniform -->
    <g transform="translate(533.160781 118.903125) scale(0.1 -0.1)">
     <use xlink:href="#ArialMT-38"/>
     <use xlink:href="#ArialMT-20" x="55.615234"/>
     <use xlink:href="#ArialMT-75" x="83.398438"/>
     <use xlink:href="#ArialMT-6e" x="139.013672"/>
     <use xlink:href="#ArialMT-69" x="194.628906"/>
     <use xlink:href="#ArialMT-66" x="216.845703"/>
     <use xlink:href="#ArialMT-6f" x="244.628906"/>
     <use xlink:href="#ArialMT-72" x="300.244141"/>
     <use xlink:href="#ArialMT-6d" x="333.544922"/>
    </g>
   </g>
   <g id="line2d_67">
    <path d="M 505.160781 129.548438 
L 515.160781 129.548438 
L 525.160781 129.548438 
" style="fill: none; stroke-dasharray: 7.4,3.2; stroke-dashoffset: 0; stroke: #000000; stroke-width: 2"/>
    <defs>
     <path id="mdcd5e1bd52" d="M -3 3 
L 3 -3 
M -3 -3 
L 3 3 
" style="stroke: #000000"/>
    </defs>
    <g>
     <use xlink:href="#mdcd5e1bd52" x="515.160781" y="129.548438" style="stroke: #000000"/>
    </g>
   </g>
   <g id="text_40">
    <!-- Indel -->
    <g transform="translate(533.160781 133.048438) scale(0.1 -0.1)">
     <defs>
      <path id="ArialMT-49" d="M 597 0 
L 597 4581 
L 1203 4581 
L 1203 0 
L 597 0 
z
" transform="scale(0.015625)"/>
     </defs>
     <use xlink:href="#ArialMT-49"/>
     <use xlink:href="#ArialMT-6e" x="27.783203"/>
     <use xlink:href="#ArialMT-64" x="83.398438"/>
     <use xlink:href="#ArialMT-65" x="139.013672"/>
     <use xlink:href="#ArialMT-6c" x="194.628906"/>
    </g>
   </g>
  </g>
 </g>
 <defs>
  <clipPath id="p33b1bacc18">
   <rect x="41.245313" y="13" width="74.455934" height="83.833"/>
  </clipPath>
  <clipPath id="p328e2eb88b">
   <rect x="164.894063" y="13" width="74.455934" height="83.833"/>
  </clipPath>
  <clipPath id="pcb84e1bc2b">
   <rect x="288.542813" y="13" width="74.455934" height="83.833"/>
  </clipPath>
  <clipPath id="p9e0255d32a">
   <rect x="412.191563" y="13" width="74.455934" height="83.833"/>
  </clipPath>
 </defs>
</svg>
